<?xml version="1.0" encoding="UTF-8"?>
<svg xmlns="http://www.w3.org/2000/svg" xmlns:xlink="http://www.w3.org/1999/xlink" version="1.2" >
<font id="sdchokdee-Regular">
<font-face  font-family="sd chokdee" units-per-em="2048" ascent="1163" descent="-401" font-style="normal" font-weight="400" font-stretch="normal" cap-height="1164" x-height="768" underline-position="-185" underline-thickness="72" />
<missing-glyph  horiz-adv-x="1536" d="" />
<glyph glyph-name="space" unicode="&#x20;" horiz-adv-x="690" d="" />
<glyph glyph-name="exclam" unicode="&#x21;" horiz-adv-x="560" d="M280 985 L280 985 L673 985 L498 378 L105 378 L280 985 Z M81 284 L485 284 L404 0 L0 0 L81 284 Z " />
<glyph glyph-name="quotedbl" unicode="&#x22;" horiz-adv-x="817" d="M408 1358 L745 1358 L445 940 L239 943 L408 1358 Z M780 1358 L1117 1358 L817 940 L611 943 L780 1358 Z " />
<glyph glyph-name="numbersign" unicode="&#x23;" horiz-adv-x="1226" d="M836 985 L1229 985 L1169 778 L1270 778 L1197 523 L1096 523 L1075 449 L1176 449 L1102 195 L1001 195 L946 0 L553 0 L609 195 L492 195 L437 0 L44 0 L100 195 L0 195 L74 449 L173 449 L195 523 L95 523 L168 778 L267 778 L327 985 L719 985 L660 778 L776 778 L836 985 L836 985 L836 985 Z M587 523 L566 449 L683 449 L704 523 L587 523 L587 523 Z " />
<glyph glyph-name="dollar" unicode="&#x24;" horiz-adv-x="1493" d="" />
<glyph glyph-name="percent" unicode="&#x25;" horiz-adv-x="1413" d="M141 0 L999 985 L1341 985 L482 0 L141 0 L141 0 L141 0 Z M289 985 L721 985 L547 493 L148 493 L289 985 L289 985 L289 985 Z M1195 0 L780 0 L942 492 L1336 492 L1195 0 L1195 0 L1195 0 Z M1047 158 L1097 331 L1063 331 L1014 158 L1047 158 L1047 158 L1047 158 Z M446 828 L396 654 L427 654 L482 828 L446 828 L446 828 Z " />
<glyph glyph-name="ampersand" unicode="&#x26;" horiz-adv-x="1740" d="" />
<glyph glyph-name="quotesingle" unicode="&#x27;" horiz-adv-x="449" d="M362 1358 L699 1358 L399 940 L193 943 L362 1358 Z " />
<glyph glyph-name="parenleft" unicode="&#x28;" horiz-adv-x="665" d="M1021 1341 L940 1058 L778 1058 L469 -48 L631 -48 L550 -331 L-2 -331 L470 1341 L1021 1341 L1021 1341 Z " />
<glyph glyph-name="parenright" unicode="&#x29;" horiz-adv-x="600" d="M-193 -331 L-112 -48 L50 -48 L359 1058 L197 1058 L278 1341 L830 1341 L358 -331 L-193 -331 Z " />
<glyph glyph-name="asterisk" unicode="&#x2a;" horiz-adv-x="596" d="M247 1001 L78 1116 L174 1192 L39 1211 L114 1377 L223 1329 L213 1428 L429 1428 L412 1329 L512 1380 L570 1215 L452 1192 L540 1119 L368 1001 L310 1104 L247 1001 L247 1001 Z " />
<glyph glyph-name="plus" unicode="&#x2b;" horiz-adv-x="1063" d="M874 760 L837 631 L1037 631 L982 433 L782 433 L744 302 L280 302 L317 433 L123 433 L177 631 L373 631 L409 760 L874 760 L874 760 Z " />
<glyph glyph-name="comma" unicode="&#x2c;" horiz-adv-x="437" d="M75 28 L412 28 L112 -390 L-94 -387 L75 28 L75 28 Z " />
<glyph glyph-name="hyphen" unicode="&#x2d;" horiz-adv-x="887" d="M854 570 L800 372 L50 372 L105 570 L854 570 L854 570 Z " />
<glyph glyph-name="period" unicode="&#x2e;" horiz-adv-x="523" d="M485 284 L404 0 L0 0 L81 284 L485 284 Z " />
<glyph glyph-name="slash" unicode="&#x2f;" horiz-adv-x="543" d="M331 1148 L724 1148 L392 0 L0 0 L331 1148 L331 1148 Z " />
<glyph glyph-name="zero" unicode="0" horiz-adv-x="1171" d="M1325 985 L959 0 L0 0 L283 985 L1325 985 L1325 985 Z M680 283 L835 702 L591 702 L471 283 L680 283 Z " />
<glyph glyph-name="one" unicode="1" horiz-adv-x="577" d="M430 0 L36 0 L236 698 L97 698 L181 985 L713 985 L430 0 Z " />
<glyph glyph-name="two" unicode="2" horiz-adv-x="1182" d="M829 701 L201 700 L283 985 L1304 985 L1124 358 L490 358 L469 284 L1101 285 L1021 0 L0 0 L176 612 L801 613 L829 701 L829 701 Z " />
<glyph glyph-name="three" unicode="3" horiz-adv-x="1138" d="M283 985 L1266 985 L1185 704 L1022 492 L1064 283 L983 0 L0 0 L104 359 L469 359 L449 283 L672 283 L636 492 L794 704 L573 704 L558 648 L186 648 L283 985 Z " />
<glyph glyph-name="four" unicode="4" horiz-adv-x="1242" d="M680 243 L631 243 L40 243 L435 985 L792 985 L562 509 L713 509 L757 509 L896 985 L1285 985 L1149 509 L1232 509 L1155 243 L1072 243 L1003 0 L610 0 L680 243 L680 243 Z " />
<glyph glyph-name="five" unicode="5" horiz-adv-x="1171" d="M711 284 L733 373 L110 374 L289 985 L1310 985 L1225 700 L593 701 L572 627 L1205 628 L1020 0 L0 0 L83 285 L711 284 L711 284 Z " />
<glyph glyph-name="six" unicode="6" horiz-adv-x="1169" d="M488 343 L471 283 L680 283 L702 343 L488 343 Z M1190 628 L959 0 L0 0 L283 985 L1325 985 L1220 703 L632 703 L632 702 L591 702 L570 628 L1190 628 Z " />
<glyph glyph-name="seven" unicode="7" horiz-adv-x="1034" d="M1129 700 L623 0 L166 0 L684 698 L161 698 L244 985 L1212 985 L1129 700 L1129 700 Z " />
<glyph glyph-name="eight" unicode="8" horiz-adv-x="1193" d="M590 704 L590 704 L634 492 L486 284 L518 283 L741 283 L705 492 L863 704 L590 704 Z M68 0 L22 0 L93 283 L248 492 L199 704 L269 985 L351 985 L1253 985 L1335 985 L1254 704 L1091 492 L1133 283 L1052 0 L1006 0 L68 0 Z " />
<glyph glyph-name="nine" unicode="9" horiz-adv-x="1239" d="M87 297 Q137 471 186 641 Q235 811 285 985 L1329 985 L1046 0 L655 0 L741 297 L87 297 Z M858 702 L593 702 L559 582 L823 582 L858 702 Z " />
<glyph glyph-name="colon" unicode="&#x3a;" horiz-adv-x="551" d="M134 325 L134 325 L471 325 L390 41 L53 41 L134 325 Z M310 938 L647 938 L566 654 L229 654 L310 938 Z " />
<glyph glyph-name="semicolon" unicode="&#x3b;" horiz-adv-x="555" d="M210 654 L291 938 L628 938 L547 654 L210 654 L210 654 L210 654 Z M114 325 L451 325 L183 -90 L-55 -90 L114 325 L114 325 Z " />
<glyph glyph-name="less" unicode="&#x3c;" horiz-adv-x="744" d="M226 0 L89 490 L510 985 L877 985 L456 490 L594 0 L226 0 L226 0 Z " />
<glyph glyph-name="equal" unicode="&#x3d;" horiz-adv-x="865" d="M901 778 L847 580 L161 580 L215 778 L901 778 L901 778 L901 778 Z M813 450 L758 252 L72 252 L126 450 L813 450 L813 450 Z " />
<glyph glyph-name="greater" unicode="&#x3e;" horiz-adv-x="789" d="M421 0 L53 0 L472 491 L336 986 L703 986 L839 491 L421 0 L421 0 Z " />
<glyph glyph-name="question" unicode="&#x3f;" horiz-adv-x="1301" d="M236 985 L1452 985 L1371 704 L1048 284 L689 284 L302 286 L375 541 L762 541 L762 540 L858 540 L980 704 L544 704 L517 612 L129 612 L236 985 L236 985 L236 985 Z M676 242 L607 0 L219 0 L289 242 L676 242 L676 242 Z " />
<glyph glyph-name="at" unicode="&#x40;" horiz-adv-x="1480" d="M566 194 L491 194 L301 194 L626 856 L1269 856 L1152 436 L888 436 L950 663 L795 663 L644 344 L1040 345 L1040 346 L1264 346 L1428 905 L421 905 L199 152 L1362 152 L1324 0 L-3 0 L307 1056 L1631 1056 L1377 195 L1213 195 L1213 194 L566 194 Z " />
<glyph glyph-name="A" unicode="A" horiz-adv-x="1237" d="M-68 0 L416 986 L1372 986 L1089 0 L697 0 L783 307 L476 307 L324 0 L-68 0 L-68 0 L-68 0 Z M898 698 L666 698 L601 567 L860 565 L898 698 Z " />
<glyph glyph-name="B" unicode="B" horiz-adv-x="1163" d="M590 701 L590 701 L565 613 L702 613 L717 613 L742 613 L829 701 L590 701 Z M388 0 L388 0 L308 0 L0 0 L283 985 L643 985 L671 985 L913 985 L1009 985 L1304 985 L1223 704 L1059 492 L1102 283 L1021 0 L680 0 L629 0 L388 0 Z M710 284 L680 358 L639 358 L623 358 L490 358 L470 284 L710 284 Z " />
<glyph glyph-name="C" unicode="C" horiz-adv-x="1225" d="M1175 383 L1067 0 L0 0 L283 985 L1316 985 L1212 627 L823 627 L845 702 L591 702 L471 283 L757 283 L788 383 L1175 383 Z " />
<glyph glyph-name="D" unicode="D" horiz-adv-x="1265" d="M0 0 L283 985 L1377 985 L1193 342 L940 0 L0 0 Z M749 284 L801 345 L904 701 L594 701 L474 284 L749 284 Z " />
<glyph glyph-name="E" unicode="E" horiz-adv-x="1052" d="M283 985 L1153 985 L1070 698 L593 698 L569 613 L875 613 L801 358 L495 358 L473 284 L951 284 L870 0 L0 0 L283 985 L283 985 Z " />
<glyph glyph-name="F" unicode="F" horiz-adv-x="924" d="M283 985 L1103 985 L1020 698 L594 698 L570 613 L907 613 L833 358 L495 358 L392 0 L0 0 L283 985 L283 985 Z " />
<glyph glyph-name="G" unicode="G" horiz-adv-x="1246" d="M658 626 L1275 626 L1192 341 L940 0 L0 0 L283 985 L1377 985 L1295 700 L904 700 L904 701 L594 701 L473 284 L749 284 L798 341 L570 341 L658 626 Z " />
<glyph glyph-name="H" unicode="H" horiz-adv-x="1137" d="M701 358 L642 358 L492 358 L390 0 L0 0 L283 985 L673 985 L566 613 L721 613 L775 613 L882 985 L1271 985 L988 0 L599 0 L701 358 Z " />
<glyph glyph-name="I" unicode="I" horiz-adv-x="539" d="M283 985 L675 985 L392 0 L0 0 L283 985 L283 985 Z " />
<glyph glyph-name="J" unicode="J" horiz-adv-x="891" d="M8 1 L90 284 L431 284 L633 985 L1025 985 L742 0 L374 0 L350 0 L8 1 L8 1 Z " />
<glyph glyph-name="K" unicode="K" horiz-adv-x="1163" d="M718 613 L732 613 L742 613 L832 704 L913 985 L1304 985 L1223 704 L1059 492 L1102 283 L1021 0 L629 0 L710 283 L680 358 L656 358 L639 358 L490 358 L388 0 L0 0 L283 985 L671 985 L565 613 L718 613 L718 613 Z " />
<glyph glyph-name="L" unicode="L" horiz-adv-x="900" d="M283 985 L673 985 L471 284 L853 284 L771 0 L0 0 L283 985 L283 985 Z " />
<glyph glyph-name="M" unicode="M" horiz-adv-x="1672" d="M1330 692 L1277 692 L931 0 L603 0 L640 692 L591 692 L392 0 L0 0 L283 985 L963 985 L964 729 L1108 985 L1806 985 L1523 0 L1130 0 L1330 692 L1330 692 Z " />
<glyph glyph-name="N" unicode="N" horiz-adv-x="1593" d="M283 985 L299 985 L545 985 L675 985 L848 985 L912 985 L1101 288 L1135 288 L1336 985 L1729 985 L1445 0 L1370 0 L1180 0 L1053 0 L857 0 L813 0 L623 698 L593 698 L392 0 L0 0 L283 985 L283 985 Z " />
<glyph glyph-name="O" unicode="O" horiz-adv-x="1194" d="M1325 985 L1042 0 L0 0 L283 985 L1325 985 L1325 985 Z M733 283 L854 702 L835 702 L591 702 L471 283 L733 283 Z " />
<glyph glyph-name="P" unicode="P" horiz-adv-x="1167" d="M1304 985 L1102 284 L469 284 L388 0 L0 0 L283 985 L1304 985 Z M785 540 L832 704 L590 704 L543 540 L785 540 Z " />
<glyph glyph-name="Q" unicode="Q" horiz-adv-x="1192" d="M1324 984 L1041 0 L924 0 L961 -138 L594 -138 L557 0 L0 0 L283 984 L1324 984 Z M732 282 L853 702 L834 702 L591 702 L471 282 L732 282 Z " />
<glyph glyph-name="R" unicode="R" horiz-adv-x="1176" d="M1304 985 L1102 284 L943 284 L1019 0 L653 0 L576 284 L469 284 L388 0 L0 0 L283 985 L1304 985 Z M725 540 L744 540 L785 540 L832 704 L801 704 L776 704 L590 704 L543 540 L725 540 L725 540 Z " />
<glyph glyph-name="S" unicode="S" horiz-adv-x="1030" d="M83 286 L475 286 L200 700 L283 985 L1146 985 L1064 698 L670 698 L947 286 L865 0 L0 0 L83 286 L83 286 Z " />
<glyph glyph-name="T" unicode="T" horiz-adv-x="976" d="M401 698 L114 698 L197 985 L1168 985 L1086 698 L796 698 L596 0 L200 0 L401 698 L401 698 Z " />
<glyph glyph-name="U" unicode="U" horiz-adv-x="1194" d="M0 0 L283 985 L673 985 L471 283 L735 283 L937 985 L1327 985 L1044 0 L0 0 Z " />
<glyph glyph-name="V" unicode="V" horiz-adv-x="1061" d="M565 291 L900 985 L1298 985 L813 0 L0 0 L283 985 L675 985 L476 291 L565 291 Z " />
<glyph glyph-name="W" unicode="W" horiz-adv-x="1669" d="M476 293 L529 293 L874 985 L1203 985 L1166 293 L1214 293 L1414 985 L1806 985 L1523 0 L843 0 L842 256 L698 0 L0 0 L283 985 L675 985 L476 293 L476 293 Z " />
<glyph glyph-name="X" unicode="X" horiz-adv-x="987" d="M549 0 L503 163 L367 0 L0 0 L411 490 L283 985 L646 985 L691 816 L833 985 L1200 985 L778 490 L917 0 L549 0 L549 0 Z " />
<glyph glyph-name="Y" unicode="Y" horiz-adv-x="1187" d="M559 613 L822 613 L929 985 L1320 985 L1037 0 L0 0 L83 286 L728 286 L748 358 L710 358 L694 358 L92 358 L273 985 L666 985 L559 613 Z " />
<glyph glyph-name="Z" unicode="Z" horiz-adv-x="996" d="M201 700 L283 985 L1147 985 L1066 700 L552 287 L946 287 L863 0 L0 0 L82 286 L594 700 L201 700 L201 700 Z " />
<glyph glyph-name="bracketleft" unicode="&#x5b;" horiz-adv-x="666" d="M1021 1341 L940 1058 L778 1058 L469 -48 L631 -48 L550 -331 L-2 -331 L470 1341 L1021 1341 Z " />
<glyph glyph-name="backslash" unicode="&#x5c;" horiz-adv-x="855" d="M429 1461 L826 0 L361 0 L-36 1461 L429 1461 L429 1461 Z " />
<glyph glyph-name="bracketright" unicode="&#x5d;" horiz-adv-x="600" d="M-193 -331 L-112 -48 L50 -48 L359 1058 L197 1058 L278 1341 L830 1341 L358 -331 L-193 -331 Z " />
<glyph glyph-name="asciicircum" unicode="&#x5e;" horiz-adv-x="1100" d="M1180 1002 L1066 597 L704 915 L150 597 L264 1001 L817 1319 L817 1319 L818 1319 L1180 1002 L1180 1002 Z " />
<glyph glyph-name="underscore" unicode="&#x5f;" horiz-adv-x="1064" d="M1012 -16 L974 -157 L19 -157 L56 -16 L1012 -16 L1012 -16 Z " />
<glyph glyph-name="grave" unicode="&#x60;" horiz-adv-x="513" d="M-151 1442 L179 1442 L366 999 L217 999 L-151 1442 L-151 1442 Z " />
<glyph glyph-name="a" unicode="a" horiz-adv-x="1237" d="M-68 0 L416 986 L1372 986 L1089 0 L697 0 L783 307 L476 307 L324 0 L-68 0 Z M898 698 L666 698 L601 567 L860 565 L898 698 Z " />
<glyph glyph-name="b" unicode="b" horiz-adv-x="1163" d="M565 613 L702 613 L717 613 L742 613 L829 701 L590 701 L565 613 Z M308 0 L0 0 L283 985 L643 985 L671 985 L913 985 L1009 985 L1304 985 L1223 704 L1059 492 L1102 283 L1021 0 L680 0 L629 0 L388 0 L308 0 Z M680 358 L639 358 L623 358 L490 358 L470 284 L710 284 L680 358 Z " />
<glyph glyph-name="c" unicode="c" horiz-adv-x="1224" d="M1175 383 L1067 0 L0 0 L283 985 L1316 985 L1212 627 L823 627 L845 702 L591 702 L471 283 L757 283 L788 383 L1175 383 Z " />
<glyph glyph-name="d" unicode="d" horiz-adv-x="1264" d="M0 0 L283 985 L1377 985 L1193 342 L940 0 L0 0 Z M801 345 L904 701 L594 701 L474 284 L749 284 L801 345 Z " />
<glyph glyph-name="e" unicode="e" horiz-adv-x="1053" d="M1153 985 L1070 698 L593 698 L569 613 L875 613 L801 358 L495 358 L473 284 L951 284 L870 0 L0 0 L283 985 L1153 985 Z " />
<glyph glyph-name="f" unicode="f" horiz-adv-x="924" d="M1103 985 L1020 698 L594 698 L570 613 L907 613 L833 358 L495 358 L392 0 L0 0 L283 985 L1103 985 Z " />
<glyph glyph-name="g" unicode="g" horiz-adv-x="1245" d="M658 626 L1275 626 L1192 341 L940 0 L0 0 L283 985 L1377 985 L1295 700 L904 700 L904 701 L594 701 L473 284 L749 284 L798 341 L570 341 L658 626 Z " />
<glyph glyph-name="h" unicode="h" horiz-adv-x="1135" d="M701 358 L642 358 L492 358 L390 0 L0 0 L283 985 L673 985 L566 613 L721 613 L775 613 L882 985 L1271 985 L988 0 L599 0 L701 358 Z " />
<glyph glyph-name="i" unicode="i" horiz-adv-x="540" d="M675 985 L392 0 L0 0 L283 985 L675 985 Z " />
<glyph glyph-name="j" unicode="j" horiz-adv-x="889" d="M90 284 L431 284 L633 985 L1025 985 L742 0 L374 0 L350 0 L8 1 L90 284 Z " />
<glyph glyph-name="k" unicode="k" horiz-adv-x="1164" d="M718 613 L732 613 L742 613 L832 704 L913 985 L1304 985 L1223 704 L1059 492 L1102 283 L1021 0 L629 0 L710 283 L680 358 L656 358 L639 358 L490 358 L388 0 L0 0 L283 985 L671 985 L565 613 L718 613 Z " />
<glyph glyph-name="l" unicode="l" horiz-adv-x="899" d="M673 985 L471 284 L853 284 L771 0 L0 0 L283 985 L673 985 Z " />
<glyph glyph-name="m" unicode="m" horiz-adv-x="1670" d="M1330 692 L1277 692 L931 0 L603 0 L640 692 L591 692 L392 0 L0 0 L283 985 L963 985 L964 729 L1108 985 L1806 985 L1523 0 L1130 0 L1330 692 Z " />
<glyph glyph-name="n" unicode="n" horiz-adv-x="1594" d="M299 985 L545 985 L675 985 L848 985 L912 985 L1101 288 L1135 288 L1336 985 L1729 985 L1445 0 L1370 0 L1180 0 L1053 0 L857 0 L813 0 L623 698 L593 698 L392 0 L0 0 L283 985 L299 985 Z " />
<glyph glyph-name="o" unicode="o" horiz-adv-x="1190" d="M1325 985 L1042 0 L0 0 L283 985 L1325 985 Z M733 283 L854 702 L835 702 L591 702 L471 283 L733 283 Z " />
<glyph glyph-name="p" unicode="p" horiz-adv-x="1169" d="M1304 985 L1102 284 L469 284 L388 0 L0 0 L283 985 L1304 985 Z M785 540 L832 704 L590 704 L543 540 L785 540 Z " />
<glyph glyph-name="q" unicode="q" horiz-adv-x="1190" d="M1324 984 L1041 0 L924 0 L961 -138 L594 -138 L557 0 L0 0 L283 984 L1324 984 Z M732 282 L853 702 L834 702 L591 702 L471 282 L732 282 Z " />
<glyph glyph-name="r" unicode="r" horiz-adv-x="1168" d="M864 985 L888 985 L1304 985 L1102 284 L943 284 L1019 0 L653 0 L576 284 L469 284 L388 0 L0 0 L283 985 L864 985 Z M725 540 L744 540 L785 540 L832 704 L801 704 L776 704 L590 704 L543 540 L725 540 Z " />
<glyph glyph-name="s" unicode="s" horiz-adv-x="1029" d="M475 286 L200 700 L283 985 L1146 985 L1064 698 L670 698 L947 286 L865 0 L0 0 L83 286 L475 286 Z " />
<glyph glyph-name="t" unicode="t" horiz-adv-x="976" d="M114 698 L197 985 L1168 985 L1086 698 L796 698 L596 0 L200 0 L401 698 L114 698 Z " />
<glyph glyph-name="u" unicode="u" horiz-adv-x="1191" d="M0 0 L283 985 L673 985 L471 283 L735 283 L937 985 L1327 985 L1044 0 L0 0 Z " />
<glyph glyph-name="v" unicode="v" horiz-adv-x="1061" d="M565 291 L900 985 L1298 985 L813 0 L0 0 L283 985 L675 985 L476 291 L565 291 Z " />
<glyph glyph-name="w" unicode="w" horiz-adv-x="1671" d="M476 293 L529 293 L874 985 L1203 985 L1166 293 L1214 293 L1414 985 L1806 985 L1523 0 L843 0 L842 256 L698 0 L0 0 L283 985 L675 985 L476 293 Z " />
<glyph glyph-name="x" unicode="x" horiz-adv-x="987" d="M549 0 L503 163 L367 0 L0 0 L411 490 L283 985 L646 985 L691 816 L833 985 L1200 985 L778 490 L917 0 L549 0 Z " />
<glyph glyph-name="y" unicode="y" horiz-adv-x="1186" d="M559 613 L822 613 L929 985 L1320 985 L1037 0 L0 0 L83 286 L728 286 L748 358 L710 358 L694 358 L92 358 L273 985 L666 985 L559 613 Z " />
<glyph glyph-name="z" unicode="z" horiz-adv-x="995" d="M201 700 L283 985 L1147 985 L1066 700 L552 287 L946 287 L863 0 L0 0 L82 286 L594 700 L201 700 Z " />
<glyph glyph-name="braceleft" unicode="&#x7b;" horiz-adv-x="885" d="M538 1476 L539 1476 L1002 1476 L1303 1476 L1249 1278 L948 1278 L542 -211 L836 -211 L781 -409 L487 -409 L25 -409 L23 -409 L242 391 L115 391 L169 589 L296 589 L538 1476 L538 1476 Z " />
<glyph glyph-name="bar" unicode="&#x7c;" horiz-adv-x="539" d="M724 1148 L392 0 L0 0 L331 1148 L724 1148 Z " />
<glyph glyph-name="braceright" unicode="&#x7d;" horiz-adv-x="1287" d="M1001 1487 L1465 1487 L1465 1487 L1411 1289 L1411 1289 L1222 598 L1348 598 L1293 400 L1168 400 L950 -399 L949 -399 L486 -399 L187 -399 L241 -201 L540 -201 L708 417 L733 507 L771 647 L946 1289 L648 1289 L702 1487 L1001 1487 L1001 1487 Z " />
<glyph glyph-name="asciitilde" unicode="&#x7e;" horiz-adv-x="865" d="M87 794 Q103 840 133 858 Q157 872 199 875 L568 875 L599 992 L873 992 L809 752 Q796 715 773 694 Q742 665 686 668 L328 668 L302 569 L27 569 L87 794 Z " />
<glyph glyph-name="&amp;#x80;" unicode="&#x80;" horiz-adv-x="1113" d="M860 0 L-1 0 L170 591 L556 591 L470 293 L596 293 L617 293 L817 703 L202 703 L283 989 L961 989 L1055 1175 L1456 1175 L860 0 Z " />
<glyph glyph-name="&amp;#x20ac;" unicode="&#x20ac;" horiz-adv-x="1113" d="M860 0 L-1 0 L170 591 L556 591 L470 293 L596 293 L617 293 L817 703 L202 703 L283 989 L961 989 L1055 1175 L1456 1175 L860 0 Z " />
<glyph glyph-name="&amp;#xf700;" unicode="&#xf700;" horiz-adv-x="1113" d="M860 0 L-1 0 L170 591 L556 591 L470 293 L596 293 L617 293 L817 703 L202 703 L283 989 L961 989 L1055 1175 L1456 1175 L860 0 Z " />
<glyph glyph-name="&amp;#x81;" unicode="&#x81;" d="M-846 1336 L211 1336 L154 1164 L-904 1164 L-846 1336 Z " />
<glyph glyph-name="&amp;#xf701;" unicode="&#xf701;" d="M-846 1336 L211 1336 L154 1164 L-904 1164 L-846 1336 Z " />
<glyph glyph-name="&amp;#x82;" unicode="&#x82;" d="M234 1421 L159 1163 L-904 1163 L-857 1326 L-187 1326 L-160 1421 L234 1421 Z " />
<glyph glyph-name="&amp;#x201a;" unicode="&#x201a;" d="M234 1421 L159 1163 L-904 1163 L-857 1326 L-187 1326 L-160 1421 L234 1421 Z " />
<glyph glyph-name="&amp;#xf702;" unicode="&#xf702;" d="M234 1421 L159 1163 L-904 1163 L-857 1326 L-187 1326 L-160 1421 L234 1421 Z " />
<glyph glyph-name="&amp;#x83;" unicode="&#x83;" d="M234 1445 L154 1163 L-904 1163 L-858 1327 L-193 1327 L-159 1445 L234 1445 Z M63 1331 L76 1379 L-52 1379 L-64 1331 L63 1331 Z " />
<glyph glyph-name="&amp;#x192;" unicode="&#x192;" d="M234 1445 L154 1163 L-904 1163 L-858 1327 L-193 1327 L-159 1445 L234 1445 Z M63 1331 L76 1379 L-52 1379 L-64 1331 L63 1331 Z " />
<glyph glyph-name="&amp;#xf703;" unicode="&#xf703;" d="M234 1445 L154 1163 L-904 1163 L-858 1327 L-193 1327 L-159 1445 L234 1445 Z M63 1331 L76 1379 L-52 1379 L-64 1331 L63 1331 Z " />
<glyph glyph-name="&amp;#x84;" unicode="&#x84;" d="M-406 1349 L-379 1439 L-177 1439 L-203 1349 L-133 1349 L-106 1439 L232 1439 L154 1164 L-904 1164 L-852 1349 L-406 1349 Z " />
<glyph glyph-name="&amp;#x201e;" unicode="&#x201e;" d="M-406 1349 L-379 1439 L-177 1439 L-203 1349 L-133 1349 L-106 1439 L232 1439 L154 1164 L-904 1164 L-852 1349 L-406 1349 Z " />
<glyph glyph-name="&amp;#xf704;" unicode="&#xf704;" d="M-406 1349 L-379 1439 L-177 1439 L-203 1349 L-133 1349 L-106 1439 L232 1439 L154 1164 L-904 1164 L-852 1349 L-406 1349 Z " />
<glyph glyph-name="&amp;#x85;" unicode="&#x85;" horiz-adv-x="1260" d="M859 284 L859 284 L1196 284 L1115 0 L778 0 L859 284 Z M469 284 L469 284 L808 284 L727 0 L388 0 L469 284 Z M81 284 L418 284 L337 0 L0 0 L81 284 Z " />
<glyph glyph-name="&amp;#x2026;" unicode="&#x2026;" horiz-adv-x="1260" d="M859 284 L859 284 L1196 284 L1115 0 L778 0 L859 284 Z M469 284 L469 284 L808 284 L727 0 L388 0 L469 284 Z M81 284 L418 284 L337 0 L0 0 L81 284 Z " />
<glyph glyph-name="&amp;#x86;" unicode="&#x86;" d="M-82 1725 L310 1725 L235 1462 L-157 1462 L-82 1725 Z " />
<glyph glyph-name="&amp;#x2020;" unicode="&#x2020;" d="M-82 1725 L310 1725 L235 1462 L-157 1462 L-82 1725 Z " />
<glyph glyph-name="&amp;#xf705;" unicode="&#xf705;" d="M-82 1725 L310 1725 L235 1462 L-157 1462 L-82 1725 Z " />
<glyph glyph-name="&amp;#x87;" unicode="&#x87;" d="M-227 1612 L-191 1737 L-123 1737 L97 1737 L270 1737 L235 1612 L616 1612 L573 1462 L-202 1462 L-160 1612 L-160 1612 L-159 1612 L-227 1612 Z " />
<glyph glyph-name="&amp;#x2021;" unicode="&#x2021;" d="M-227 1612 L-191 1737 L-123 1737 L97 1737 L270 1737 L235 1612 L616 1612 L573 1462 L-202 1462 L-160 1612 L-160 1612 L-159 1612 L-227 1612 Z " />
<glyph glyph-name="&amp;#xf706;" unicode="&#xf706;" d="M-227 1612 L-191 1737 L-123 1737 L97 1737 L270 1737 L235 1612 L616 1612 L573 1462 L-202 1462 L-160 1612 L-160 1612 L-159 1612 L-227 1612 Z " />
<glyph glyph-name="&amp;#x88;" unicode="&#x88;" d="M-60 1676 L-176 1676 L-265 1741 L-289 1640 L-207 1640 L-241 1527 L-566 1527 L-467 1884 L-233 1884 L-150 1819 L-20 1819 L11 1819 L268 1819 L200 1575 L488 1575 L459 1462 L169 1462 L-8 1462 L-120 1462 L-60 1676 Z " />
<glyph glyph-name="&amp;#x2c6;" unicode="&#x2c6;" d="M-60 1676 L-176 1676 L-265 1741 L-289 1640 L-207 1640 L-241 1527 L-566 1527 L-467 1884 L-233 1884 L-150 1819 L-20 1819 L11 1819 L268 1819 L200 1575 L488 1575 L459 1462 L169 1462 L-8 1462 L-120 1462 L-60 1676 Z " />
<glyph glyph-name="&amp;#xf707;" unicode="&#xf707;" d="M-60 1676 L-176 1676 L-265 1741 L-289 1640 L-207 1640 L-241 1527 L-566 1527 L-467 1884 L-233 1884 L-150 1819 L-20 1819 L11 1819 L268 1819 L200 1575 L488 1575 L459 1462 L169 1462 L-8 1462 L-120 1462 L-60 1676 Z " />
<glyph glyph-name="&amp;#x89;" unicode="&#x89;" d="M-139 1526 L-207 1526 L-165 1675 L-97 1675 L-82 1725 L310 1725 L296 1675 L365 1675 L322 1526 L253 1526 L235 1462 L-157 1462 L-139 1526 Z " />
<glyph glyph-name="&amp;#x2030;" unicode="&#x2030;" d="M-139 1526 L-207 1526 L-165 1675 L-97 1675 L-82 1725 L310 1725 L296 1675 L365 1675 L322 1526 L253 1526 L235 1462 L-157 1462 L-139 1526 Z " />
<glyph glyph-name="&amp;#xf708;" unicode="&#xf708;" d="M-139 1526 L-207 1526 L-165 1675 L-97 1675 L-82 1725 L310 1725 L296 1675 L365 1675 L322 1526 L253 1526 L235 1462 L-157 1462 L-139 1526 Z " />
<glyph glyph-name="&amp;#x8a;" unicode="&#x8a;" d="M-110 1668 L217 1668 L317 1668 L666 1668 L620 1508 L271 1508 L235 1382 L-192 1382 L-110 1668 Z " />
<glyph glyph-name="&amp;#x160;" unicode="&#x160;" d="M-110 1668 L217 1668 L317 1668 L666 1668 L620 1508 L271 1508 L235 1382 L-192 1382 L-110 1668 Z " />
<glyph glyph-name="&amp;#xf709;" unicode="&#xf709;" d="M-110 1668 L217 1668 L317 1668 L666 1668 L620 1508 L271 1508 L235 1382 L-192 1382 L-110 1668 Z " />
<glyph glyph-name="&amp;#x8b;" unicode="&#x8b;" d="M-82 1725 L310 1725 L235 1462 L-157 1462 L-82 1725 Z " />
<glyph glyph-name="&amp;#x2039;" unicode="&#x2039;" d="M-82 1725 L310 1725 L235 1462 L-157 1462 L-82 1725 Z " />
<glyph glyph-name="&amp;#xf70a;" unicode="&#xf70a;" d="M-82 1725 L310 1725 L235 1462 L-157 1462 L-82 1725 Z " />
<glyph glyph-name="&amp;#x8c;" unicode="&#x8c;" d="M-227 1612 L-191 1737 L-123 1737 L97 1737 L270 1737 L235 1612 L616 1612 L573 1462 L-202 1462 L-160 1612 L-160 1612 L-159 1612 L-227 1612 Z " />
<glyph glyph-name="&amp;#x152;" unicode="&#x152;" d="M-227 1612 L-191 1737 L-123 1737 L97 1737 L270 1737 L235 1612 L616 1612 L573 1462 L-202 1462 L-160 1612 L-160 1612 L-159 1612 L-227 1612 Z " />
<glyph glyph-name="&amp;#xf70b;" unicode="&#xf70b;" d="M-227 1612 L-191 1737 L-123 1737 L97 1737 L270 1737 L235 1612 L616 1612 L573 1462 L-202 1462 L-160 1612 L-160 1612 L-159 1612 L-227 1612 Z " />
<glyph glyph-name="&amp;#x8d;" unicode="&#x8d;" d="M-60 1676 L-176 1676 L-265 1741 L-289 1640 L-207 1640 L-241 1527 L-566 1527 L-467 1884 L-233 1884 L-150 1819 L-20 1819 L11 1819 L268 1819 L200 1575 L488 1575 L459 1462 L169 1462 L-8 1462 L-120 1462 L-60 1676 Z " />
<glyph glyph-name="&amp;#xf70c;" unicode="&#xf70c;" d="M-60 1676 L-176 1676 L-265 1741 L-289 1640 L-207 1640 L-241 1527 L-566 1527 L-467 1884 L-233 1884 L-150 1819 L-20 1819 L11 1819 L268 1819 L200 1575 L488 1575 L459 1462 L169 1462 L-8 1462 L-120 1462 L-60 1676 Z " />
<glyph glyph-name="&amp;#x8e;" unicode="&#x8e;" d="M-139 1526 L-207 1526 L-165 1675 L-97 1675 L-82 1725 L310 1725 L296 1675 L365 1675 L322 1526 L253 1526 L235 1462 L-157 1462 L-139 1526 Z " />
<glyph glyph-name="&amp;#x17d;" unicode="&#x17d;" d="M-139 1526 L-207 1526 L-165 1675 L-97 1675 L-82 1725 L310 1725 L296 1675 L365 1675 L322 1526 L253 1526 L235 1462 L-157 1462 L-139 1526 Z " />
<glyph glyph-name="&amp;#xf70d;" unicode="&#xf70d;" d="M-139 1526 L-207 1526 L-165 1675 L-97 1675 L-82 1725 L310 1725 L296 1675 L365 1675 L322 1526 L253 1526 L235 1462 L-157 1462 L-139 1526 Z " />
<glyph glyph-name="&amp;#x8f;" unicode="&#x8f;" d="M-110 1668 L217 1668 L317 1668 L666 1668 L620 1508 L271 1508 L235 1382 L-192 1382 L-110 1668 Z " />
<glyph glyph-name="&amp;#xf70e;" unicode="&#xf70e;" d="M-110 1668 L217 1668 L317 1668 L666 1668 L620 1508 L271 1508 L235 1382 L-192 1382 L-110 1668 Z " />
<glyph glyph-name="&amp;#x90;" unicode="&#x90;" horiz-adv-x="1898" d="M416 988 L1375 988 L1166 254 L1430 254 L1645 993 L2037 993 L1748 0 L1356 -1 L698 -1 L699 0 L698 0 L898 694 L665 694 L467 288 L613 288 L531 0 L-69 0 L416 988 Z " />
<glyph glyph-name="&amp;#xf70f;" unicode="&#xf70f;" horiz-adv-x="1898" d="M416 988 L1375 988 L1166 254 L1430 254 L1645 993 L2037 993 L1748 0 L1356 -1 L698 -1 L699 0 L698 0 L898 694 L665 694 L467 288 L613 288 L531 0 L-69 0 L416 988 Z " />
<glyph glyph-name="&amp;#x91;" unicode="&#x91;" horiz-adv-x="395" d="" />
<glyph glyph-name="&amp;#x2018;" unicode="&#x2018;" horiz-adv-x="395" d="" />
<glyph glyph-name="&amp;#x92;" unicode="&#x92;" horiz-adv-x="395" d="" />
<glyph glyph-name="&amp;#x2019;" unicode="&#x2019;" horiz-adv-x="395" d="" />
<glyph glyph-name="&amp;#x93;" unicode="&#x93;" horiz-adv-x="655" d="" />
<glyph glyph-name="&amp;#x201c;" unicode="&#x201c;" horiz-adv-x="655" d="" />
<glyph glyph-name="&amp;#x94;" unicode="&#x94;" horiz-adv-x="655" d="" />
<glyph glyph-name="&amp;#x201d;" unicode="&#x201d;" horiz-adv-x="655" d="" />
<glyph glyph-name="&amp;#x95;" unicode="&#x95;" horiz-adv-x="702" d="" />
<glyph glyph-name="&amp;#x2022;" unicode="&#x2022;" horiz-adv-x="702" d="" />
<glyph glyph-name="&amp;#x96;" unicode="&#x96;" horiz-adv-x="862" d="" />
<glyph glyph-name="&amp;#x2013;" unicode="&#x2013;" horiz-adv-x="862" d="" />
<glyph glyph-name="&amp;#x97;" unicode="&#x97;" horiz-adv-x="1292" d="" />
<glyph glyph-name="&amp;#x2014;" unicode="&#x2014;" horiz-adv-x="1292" d="" />
<glyph glyph-name="&amp;#x98;" unicode="&#x98;" d="M-424 1425 L-32 1425 L-69 1298 L300 1298 L263 1162 L-107 1162 L-206 1162 L-500 1162 L-424 1425 Z " />
<glyph glyph-name="&amp;#x2dc;" unicode="&#x2dc;" d="M-424 1425 L-32 1425 L-69 1298 L300 1298 L263 1162 L-107 1162 L-206 1162 L-500 1162 L-424 1425 Z " />
<glyph glyph-name="&amp;#xf710;" unicode="&#xf710;" d="M-424 1425 L-32 1425 L-69 1298 L300 1298 L263 1162 L-107 1162 L-206 1162 L-500 1162 L-424 1425 Z " />
<glyph glyph-name="&amp;#x99;" unicode="&#x99;" d="M0 1484 Q36 1484 68 1470.5 Q100 1457 123.5 1433 Q147 1409 161 1377.5 Q175 1346 175 1310 Q175 1274 161 1242 Q147 1210 123.5 1186 Q100 1162 68 1148.5 Q36 1135 0 1135 Q-36 1135 -67.5 1148.5 Q-99 1162 -123 1186 Q-147 1210 -160.5 1242 Q-174 1274 -174 1310 Q-174 1346 -160.5 1377.5 Q-147 1409 -123 1433 Q-99 1457 -67.5 1470.5 Q-36 1484 0 1484 Z M0 1366 Q-23 1366 -39.5 1349.5 Q-56 1333 -56 1310 Q-56 1286 -39.5 1269.5 Q-23 1253 0 1253 Q23 1253 40 1269.5 Q57 1286 57 1310 Q57 1333 40 1349.5 Q23 1366 0 1366 Z " />
<glyph glyph-name="&amp;#x2122;" unicode="&#x2122;" d="M0 1484 Q36 1484 68 1470.5 Q100 1457 123.5 1433 Q147 1409 161 1377.5 Q175 1346 175 1310 Q175 1274 161 1242 Q147 1210 123.5 1186 Q100 1162 68 1148.5 Q36 1135 0 1135 Q-36 1135 -67.5 1148.5 Q-99 1162 -123 1186 Q-147 1210 -160.5 1242 Q-174 1274 -174 1310 Q-174 1346 -160.5 1377.5 Q-147 1409 -123 1433 Q-99 1457 -67.5 1470.5 Q-36 1484 0 1484 Z M0 1366 Q-23 1366 -39.5 1349.5 Q-56 1333 -56 1310 Q-56 1286 -39.5 1269.5 Q-23 1253 0 1253 Q23 1253 40 1269.5 Q57 1286 57 1310 Q57 1333 40 1349.5 Q23 1366 0 1366 Z " />
<glyph glyph-name="&amp;#xf711;" unicode="&#xf711;" d="M0 1484 Q36 1484 68 1470.5 Q100 1457 123.5 1433 Q147 1409 161 1377.5 Q175 1346 175 1310 Q175 1274 161 1242 Q147 1210 123.5 1186 Q100 1162 68 1148.5 Q36 1135 0 1135 Q-36 1135 -67.5 1148.5 Q-99 1162 -123 1186 Q-147 1210 -160.5 1242 Q-174 1274 -174 1310 Q-174 1346 -160.5 1377.5 Q-147 1409 -123 1433 Q-99 1457 -67.5 1470.5 Q-36 1484 0 1484 Z M0 1366 Q-23 1366 -39.5 1349.5 Q-56 1333 -56 1310 Q-56 1286 -39.5 1269.5 Q-23 1253 0 1253 Q23 1253 40 1269.5 Q57 1286 57 1310 Q57 1333 40 1349.5 Q23 1366 0 1366 Z " />
<glyph glyph-name="&amp;#x9a;" unicode="&#x9a;" d="M341 1477 L-235 1479 L-263 1383 L-74 1437 L81 1383 L314 1382 L248 1162 L15 1163 L-138 1220 L-329 1164 L-560 1164 L-400 1698 L408 1695 L341 1477 Z " />
<glyph glyph-name="&amp;#x161;" unicode="&#x161;" d="M341 1477 L-235 1479 L-263 1383 L-74 1437 L81 1383 L314 1382 L248 1162 L15 1163 L-138 1220 L-329 1164 L-560 1164 L-400 1698 L408 1695 L341 1477 Z " />
<glyph glyph-name="&amp;#xf712;" unicode="&#xf712;" d="M341 1477 L-235 1479 L-263 1383 L-74 1437 L81 1383 L314 1382 L248 1162 L15 1163 L-138 1220 L-329 1164 L-560 1164 L-400 1698 L408 1695 L341 1477 Z " />
<glyph glyph-name="&amp;#x9b;" unicode="&#x9b;" d="M-82 1725 L310 1725 L235 1462 L-157 1462 L-82 1725 Z " />
<glyph glyph-name="&amp;#x203a;" unicode="&#x203a;" d="M-82 1725 L310 1725 L235 1462 L-157 1462 L-82 1725 Z " />
<glyph glyph-name="&amp;#xf713;" unicode="&#xf713;" d="M-82 1725 L310 1725 L235 1462 L-157 1462 L-82 1725 Z " />
<glyph glyph-name="&amp;#x9c;" unicode="&#x9c;" d="M-227 1612 L-191 1737 L-123 1737 L97 1737 L270 1737 L235 1612 L616 1612 L573 1462 L-202 1462 L-160 1612 L-160 1612 L-159 1612 L-227 1612 Z " />
<glyph glyph-name="&amp;#x153;" unicode="&#x153;" d="M-227 1612 L-191 1737 L-123 1737 L97 1737 L270 1737 L235 1612 L616 1612 L573 1462 L-202 1462 L-160 1612 L-160 1612 L-159 1612 L-227 1612 Z " />
<glyph glyph-name="&amp;#xf714;" unicode="&#xf714;" d="M-227 1612 L-191 1737 L-123 1737 L97 1737 L270 1737 L235 1612 L616 1612 L573 1462 L-202 1462 L-160 1612 L-160 1612 L-159 1612 L-227 1612 Z " />
<glyph glyph-name="&amp;#x9d;" unicode="&#x9d;" d="M-60 1676 L-176 1676 L-265 1741 L-289 1640 L-207 1640 L-241 1527 L-566 1527 L-467 1884 L-233 1884 L-150 1819 L-20 1819 L11 1819 L268 1819 L200 1575 L488 1575 L459 1462 L169 1462 L-8 1462 L-120 1462 L-60 1676 Z " />
<glyph glyph-name="&amp;#xf715;" unicode="&#xf715;" d="M-60 1676 L-176 1676 L-265 1741 L-289 1640 L-207 1640 L-241 1527 L-566 1527 L-467 1884 L-233 1884 L-150 1819 L-20 1819 L11 1819 L268 1819 L200 1575 L488 1575 L459 1462 L169 1462 L-8 1462 L-120 1462 L-60 1676 Z " />
<glyph glyph-name="&amp;#x9e;" unicode="&#x9e;" d="M-139 1526 L-207 1526 L-165 1675 L-97 1675 L-82 1725 L310 1725 L296 1675 L365 1675 L322 1526 L253 1526 L235 1462 L-157 1462 L-139 1526 Z " />
<glyph glyph-name="&amp;#x17e;" unicode="&#x17e;" d="M-139 1526 L-207 1526 L-165 1675 L-97 1675 L-82 1725 L310 1725 L296 1675 L365 1675 L322 1526 L253 1526 L235 1462 L-157 1462 L-139 1526 Z " />
<glyph glyph-name="&amp;#xf716;" unicode="&#xf716;" d="M-139 1526 L-207 1526 L-165 1675 L-97 1675 L-82 1725 L310 1725 L296 1675 L365 1675 L322 1526 L253 1526 L235 1462 L-157 1462 L-139 1526 Z " />
<glyph glyph-name="&amp;#x9f;" unicode="&#x9f;" d="M-110 1668 L217 1668 L317 1668 L666 1668 L620 1508 L271 1508 L235 1382 L-192 1382 L-110 1668 Z " />
<glyph glyph-name="&amp;#x178;" unicode="&#x178;" d="M-110 1668 L217 1668 L317 1668 L666 1668 L620 1508 L271 1508 L235 1382 L-192 1382 L-110 1668 Z " />
<glyph glyph-name="&amp;#xf717;" unicode="&#xf717;" d="M-110 1668 L217 1668 L317 1668 L666 1668 L620 1508 L271 1508 L235 1382 L-192 1382 L-110 1668 Z " />
<glyph glyph-name="&amp;#xa0;" unicode="&#xa0;" horiz-adv-x="925" d="" />
<glyph glyph-name="&amp;#xe00;" unicode="&#xe00;" horiz-adv-x="925" d="" />
<glyph glyph-name="&amp;#xa1;" unicode="&#xa1;" horiz-adv-x="1237" d="M1373 989 L1089 0 L696 0 L895 695 L668 695 L663 695 L325 0 L-72 0 L413 989 L1373 989 Z " />
<glyph glyph-name="&amp;#xe01;" unicode="&#xe01;" horiz-adv-x="1237" d="M1373 989 L1089 0 L696 0 L895 695 L668 695 L663 695 L325 0 L-72 0 L413 989 L1373 989 Z " />
<glyph glyph-name="&amp;#xa2;" unicode="&#xa2;" horiz-adv-x="1063" d="M478 292 L566 292 L903 989 L1302 989 L816 0 L0 0 L284 989 L677 989 L478 292 L478 292 Z " />
<glyph glyph-name="&amp;#xe02;" unicode="&#xe02;" horiz-adv-x="1063" d="M478 292 L566 292 L903 989 L1302 989 L816 0 L0 0 L284 989 L677 989 L478 292 L478 292 Z " />
<glyph glyph-name="&amp;#xa3;" unicode="&#xa3;" horiz-adv-x="1169" d="M585 292 L673 292 L1010 989 L1409 989 L923 0 L107 0 L309 702 L189 702 L271 989 L422 989 L517 921 L622 989 L784 989 L585 292 L585 292 Z " />
<glyph glyph-name="&amp;#xe03;" unicode="&#xe03;" horiz-adv-x="1169" d="M585 292 L673 292 L1010 989 L1409 989 L923 0 L107 0 L309 702 L189 702 L271 989 L422 989 L517 921 L622 989 L784 989 L585 292 L585 292 Z " />
<glyph glyph-name="&amp;#xa4;" unicode="&#xa4;" horiz-adv-x="1305" d="M0 0 L284 990 L787 990 L1111 990 L1441 990 L1157 0 L766 0 L969 704 L919 704 L917 701 L597 701 L573 615 L850 615 L775 360 L497 360 L394 0 L0 0 L0 0 Z " />
<glyph glyph-name="&amp;#xe04;" unicode="&#xe04;" horiz-adv-x="1305" d="M0 0 L284 990 L787 990 L1111 990 L1441 990 L1157 0 L766 0 L969 704 L919 704 L917 701 L597 701 L573 615 L850 615 L775 360 L497 360 L394 0 L0 0 L0 0 Z " />
<glyph glyph-name="&amp;#xa5;" unicode="&#xa5;" horiz-adv-x="1305" d="M0 0 L284 989 L680 989 L862 918 L1092 918 L1422 918 L1156 0 L765 0 L950 632 L780 631 L596 700 L572 615 L849 615 L775 359 L496 359 L394 0 L0 0 L0 0 Z " />
<glyph glyph-name="&amp;#xe05;" unicode="&#xe05;" horiz-adv-x="1305" d="M0 0 L284 989 L680 989 L862 918 L1092 918 L1422 918 L1156 0 L765 0 L950 632 L780 631 L596 700 L572 615 L849 615 L775 359 L496 359 L394 0 L0 0 L0 0 Z " />
<glyph glyph-name="&amp;#xa6;" unicode="&#xa6;" horiz-adv-x="1197" d="M303 700 L136 700 L219 989 L369 989 L462 936 L539 989 L774 989 L670 646 L562 587 L731 265 L939 989 L1332 989 L1048 0 L870 0 L655 0 L562 0 L454 210 L394 0 L0 0 L178 621 L303 700 L303 700 Z " />
<glyph glyph-name="&amp;#xe06;" unicode="&#xe06;" horiz-adv-x="1197" d="M303 700 L136 700 L219 989 L369 989 L462 936 L539 989 L774 989 L670 646 L562 587 L731 265 L939 989 L1332 989 L1048 0 L870 0 L655 0 L562 0 L454 210 L394 0 L0 0 L178 621 L303 700 L303 700 Z " />
<glyph glyph-name="&amp;#xa7;" unicode="&#xa7;" horiz-adv-x="1207" d="M0 0 L284 989 L677 989 L478 294 L484 294 L515 294 L710 294 L909 703 L725 703 L808 989 L1048 989 L1382 989 L1445 989 L960 0 L0 0 Z " />
<glyph glyph-name="&amp;#xe07;" unicode="&#xe07;" horiz-adv-x="1207" d="M0 0 L284 989 L677 989 L478 294 L484 294 L515 294 L710 294 L909 703 L725 703 L808 989 L1048 989 L1382 989 L1445 989 L960 0 L0 0 Z " />
<glyph glyph-name="&amp;#xa8;" unicode="&#xa8;" horiz-adv-x="1112" d="M596 0 L0 0 L170 590 L557 590 L471 292 L596 292 L618 292 L818 703 L202 703 L284 989 L1362 989 L860 0 L633 0 L596 0 L596 0 Z " />
<glyph glyph-name="&amp;#xe08;" unicode="&#xe08;" horiz-adv-x="1112" d="M596 0 L0 0 L170 590 L557 590 L471 292 L596 292 L618 292 L818 703 L202 703 L284 989 L1362 989 L860 0 L633 0 L596 0 L596 0 Z " />
<glyph glyph-name="&amp;#xa9;" unicode="&#xa9;" horiz-adv-x="1193" d="M1045 0 L655 0 L654 0 L715 210 L486 0 L394 0 L179 0 L0 0 L153 533 L546 533 L470 265 L823 587 L856 703 L164 703 L244 989 L1329 989 L1045 0 L1045 0 Z " />
<glyph glyph-name="&amp;#xe09;" unicode="&#xe09;" horiz-adv-x="1193" d="M1045 0 L655 0 L654 0 L715 210 L486 0 L394 0 L179 0 L0 0 L153 533 L546 533 L470 265 L823 587 L856 703 L164 703 L244 989 L1329 989 L1045 0 L1045 0 Z " />
<glyph glyph-name="&amp;#xaa;" unicode="&#xaa;" horiz-adv-x="1237" d="M784 282 L688 766 L805 989 L1197 989 L1078 762 L1178 282 L1096 0 L0 0 L288 989 L675 989 L470 282 L784 282 Z " />
<glyph glyph-name="&amp;#xe0a;" unicode="&#xe0a;" horiz-adv-x="1237" d="M784 282 L688 766 L805 989 L1197 989 L1078 762 L1178 282 L1096 0 L0 0 L288 989 L675 989 L470 282 L784 282 Z " />
<glyph glyph-name="&amp;#xab;" unicode="&#xab;" horiz-adv-x="1237" d="M498 282 L533 282 L784 282 L688 766 L805 989 L1197 989 L1078 762 L1178 282 L1096 0 L0 0 L204 702 L96 702 L178 989 L328 989 L412 928 L524 989 L676 989 L470 282 L498 282 L498 282 Z " />
<glyph glyph-name="&amp;#xe0b;" unicode="&#xe0b;" horiz-adv-x="1237" d="M498 282 L533 282 L784 282 L688 766 L805 989 L1197 989 L1078 762 L1178 282 L1096 0 L0 0 L204 702 L96 702 L178 989 L328 989 L412 928 L524 989 L676 989 L470 282 L498 282 L498 282 Z " />
<glyph glyph-name="&amp;#xac;" unicode="&#xac;" horiz-adv-x="1889" d="M700 989 L978 989 L1371 989 L1373 989 L1257 585 L1425 265 L1632 989 L2026 989 L1742 0 L1564 0 L1348 0 L1256 0 L1149 208 L1089 0 L1087 0 L696 0 L694 0 L893 695 L700 695 L668 695 L663 695 L465 288 L610 288 L528 0 L325 0 L20 0 L-72 0 L413 989 L668 989 L700 989 L700 989 Z " />
<glyph glyph-name="&amp;#xe0c;" unicode="&#xe0c;" horiz-adv-x="1889" d="M700 989 L978 989 L1371 989 L1373 989 L1257 585 L1425 265 L1632 989 L2026 989 L1742 0 L1564 0 L1348 0 L1256 0 L1149 208 L1089 0 L1087 0 L696 0 L694 0 L893 695 L700 695 L668 695 L663 695 L465 288 L610 288 L528 0 L325 0 L20 0 L-72 0 L413 989 L668 989 L700 989 L700 989 Z " />
<glyph glyph-name="&amp;#xad;" unicode="&#xad;" horiz-adv-x="1898" d="M416 988 L1375 988 L1166 254 L1430 254 L1645 993 L2037 993 L1669 -273 L619 -273 L677 -74 L1336 -74 L1356 -1 L698 -1 L699 0 L698 0 L898 694 L665 694 L467 288 L613 288 L531 0 L-69 0 L416 988 Z " />
<glyph glyph-name="&amp;#xde;" unicode="&#xde;" horiz-adv-x="1898" d="M416 988 L1375 988 L1166 254 L1430 254 L1645 993 L2037 993 L1669 -273 L619 -273 L677 -74 L1336 -74 L1356 -1 L698 -1 L699 0 L698 0 L898 694 L665 694 L467 288 L613 288 L531 0 L-69 0 L416 988 Z " />
<glyph glyph-name="&amp;#xe0d;" unicode="&#xe0d;" horiz-adv-x="1898" d="M416 988 L1375 988 L1166 254 L1430 254 L1645 993 L2037 993 L1669 -273 L619 -273 L677 -74 L1336 -74 L1356 -1 L698 -1 L699 0 L698 0 L898 694 L665 694 L467 288 L613 288 L531 0 L-69 0 L416 988 Z " />
<glyph glyph-name="&amp;#xae;" unicode="&#xae;" horiz-adv-x="1246" d="M682 -79 Q736 116 791 308 Q846 500 902 695 L670 695 L332 0 L-65 0 L-128 0 L-47 286 L75 286 L420 988 L1380 988 L1383 988 L1015 -278 L-36 -278 L23 -79 L682 -79 L682 -79 Z " />
<glyph glyph-name="&amp;#xe0e;" unicode="&#xe0e;" horiz-adv-x="1246" d="M682 -79 Q736 116 791 308 Q846 500 902 695 L670 695 L332 0 L-65 0 L-128 0 L-47 286 L75 286 L420 988 L1380 988 L1383 988 L1015 -278 L-36 -278 L23 -79 L682 -79 L682 -79 Z " />
<glyph glyph-name="&amp;#xaf;" unicode="&#xaf;" horiz-adv-x="1244" d="M681 -79 L901 694 L669 694 L334 6 L332 0 L331 0 L-66 0 L-129 0 L-48 285 L74 285 L419 988 L1379 988 L1379 988 L1382 988 L1014 -278 L623 -278 L495 -215 L317 -278 L-37 -278 L22 -79 L374 -79 L553 -16 L681 -79 Z " />
<glyph glyph-name="&amp;#xe0f;" unicode="&#xe0f;" horiz-adv-x="1244" d="M681 -79 L901 694 L669 694 L334 6 L332 0 L331 0 L-66 0 L-129 0 L-48 285 L74 285 L419 988 L1379 988 L1379 988 L1382 988 L1014 -278 L623 -278 L495 -215 L317 -278 L-37 -278 L22 -79 L374 -79 L553 -16 L681 -79 Z " />
<glyph glyph-name="&amp;#xb0;" unicode="&#xb0;" horiz-adv-x="1120" d="M431 -138 L446 -83 L838 -83 L764 -337 L373 -337 L245 -274 L67 -337 L-91 -337 L-32 -138 L123 -138 L303 -74 L431 -138 Z M860 0 L-1 0 L170 591 L556 591 L470 293 L596 293 L617 293 L817 703 L202 703 L283 989 L961 989 L1041 1148 L1442 1148 L860 0 Z " />
<glyph glyph-name="&amp;#xe10;" unicode="&#xe10;" horiz-adv-x="1120" d="M431 -138 L446 -83 L838 -83 L764 -337 L373 -337 L245 -274 L67 -337 L-91 -337 L-32 -138 L123 -138 L303 -74 L431 -138 Z M860 0 L-1 0 L170 591 L556 591 L470 293 L596 293 L617 293 L817 703 L202 703 L283 989 L961 989 L1041 1148 L1442 1148 L860 0 Z " />
<glyph glyph-name="&amp;#xb1;" unicode="&#xb1;" horiz-adv-x="1440" d="M681 989 Q631 814 581.5 641 Q532 468 481 292 L499 292 L835 989 L922 989 L1235 989 L1576 989 L1292 0 L901 0 L1103 703 L1094 703 L748 0 L4 0 L184 627 L205 703 L92 703 L174 989 L332 989 L412 934 L522 989 L681 989 L681 989 Z " />
<glyph glyph-name="&amp;#xe11;" unicode="&#xe11;" horiz-adv-x="1440" d="M681 989 Q631 814 581.5 641 Q532 468 481 292 L499 292 L835 989 L922 989 L1235 989 L1576 989 L1292 0 L901 0 L1103 703 L1094 703 L748 0 L4 0 L184 627 L205 703 L92 703 L174 989 L332 989 L412 934 L522 989 L681 989 L681 989 Z " />
<glyph glyph-name="&amp;#xb2;" unicode="&#xb2;" horiz-adv-x="2110" d="M761 575 L589 700 L469 282 L548 282 L652 503 L1046 503 L792 0 L0 0 L284 989 L673 989 L844 864 L1171 885 L1561 885 L1476 588 L1644 266 L1852 989 L2246 989 L1962 1 L1783 1 L1568 1 L1476 1 L1367 211 L1307 1 L1306 1 L1306 0 L915 0 L915 1 L913 1 L1085 596 L761 575 Z " />
<glyph glyph-name="&amp;#xe12;" unicode="&#xe12;" horiz-adv-x="2110" d="M761 575 L589 700 L469 282 L548 282 L652 503 L1046 503 L792 0 L0 0 L284 989 L673 989 L844 864 L1171 885 L1561 885 L1476 588 L1644 266 L1852 989 L2246 989 L1962 1 L1783 1 L1568 1 L1476 1 L1367 211 L1307 1 L1306 1 L1306 0 L915 0 L915 1 L913 1 L1085 596 L761 575 Z " />
<glyph glyph-name="&amp;#xb3;" unicode="&#xb3;" horiz-adv-x="1891" d="M414 989 L1374 989 L1168 268 L1518 586 L1633 988 L2026 988 L1743 -1 L1349 -1 L1409 209 L1181 -1 L1147 -1 L697 -1 L695 -1 L894 695 L664 695 L466 288 L611 288 L529 0 L-71 0 L414 989 Z " />
<glyph glyph-name="&amp;#xe13;" unicode="&#xe13;" horiz-adv-x="1891" d="M414 989 L1374 989 L1168 268 L1518 586 L1633 988 L2026 988 L1743 -1 L1349 -1 L1409 209 L1181 -1 L1147 -1 L697 -1 L695 -1 L894 695 L664 695 L466 288 L611 288 L529 0 L-71 0 L414 989 Z " />
<glyph glyph-name="&amp;#xb4;" unicode="&#xb4;" horiz-adv-x="1454" d="M278 990 L1195 990 L1585 990 L1301 0 L910 0 L1112 700 L584 701 L464 283 L542 283 L646 503 L1041 503 L786 0 L-6 0 L278 990 L278 990 Z " />
<glyph glyph-name="&amp;#xe14;" unicode="&#xe14;" horiz-adv-x="1454" d="M278 990 L1195 990 L1585 990 L1301 0 L910 0 L1112 700 L584 701 L464 283 L542 283 L646 503 L1041 503 L786 0 L-6 0 L278 990 L278 990 Z " />
<glyph glyph-name="&amp;#xb5;" unicode="&#xb5;" horiz-adv-x="1454" d="M284 989 L673 989 L844 864 L1171 885 L1561 885 L1306 0 L915 0 L1088 597 L761 575 L589 700 L469 283 L548 283 L652 503 L1046 503 L792 0 L0 0 L284 989 Z " />
<glyph glyph-name="&amp;#xe15;" unicode="&#xe15;" horiz-adv-x="1454" d="M284 989 L673 989 L844 864 L1171 885 L1561 885 L1306 0 L915 0 L1088 597 L761 575 L589 700 L469 283 L548 283 L652 503 L1046 503 L792 0 L0 0 L284 989 Z " />
<glyph glyph-name="&amp;#xb6;" unicode="&#xb6;" horiz-adv-x="1241" d="M704 989 L1377 989 L1093 0 L699 0 L899 695 L704 695 L672 695 L667 695 L469 288 L614 288 L532 0 L328 0 L24 0 L-68 0 L417 989 L672 989 L704 989 L704 989 Z " />
<glyph glyph-name="&amp;#xe16;" unicode="&#xe16;" horiz-adv-x="1241" d="M704 989 L1377 989 L1093 0 L699 0 L899 695 L704 695 L672 695 L667 695 L469 288 L614 288 L532 0 L328 0 L24 0 L-68 0 L417 989 L672 989 L704 989 L704 989 Z " />
<glyph glyph-name="&amp;#xb7;" unicode="&#xb7;" horiz-adv-x="1435" d="M472 0 L0 0 L283 989 L677 989 L477 292 L495 292 L831 989 L918 989 L1230 989 L1571 989 L1287 0 L897 0 L1099 703 L1090 703 L744 0 L506 0 L472 0 L472 0 Z " />
<glyph glyph-name="&amp;#xe17;" unicode="&#xe17;" horiz-adv-x="1435" d="M472 0 L0 0 L283 989 L677 989 L477 292 L495 292 L831 989 L918 989 L1230 989 L1571 989 L1287 0 L897 0 L1099 703 L1090 703 L744 0 L506 0 L472 0 L472 0 Z " />
<glyph glyph-name="&amp;#x2219;" unicode="&#x2219;" horiz-adv-x="1435" d="M472 0 L0 0 L283 989 L677 989 L477 292 L495 292 L831 989 L918 989 L1230 989 L1571 989 L1287 0 L897 0 L1099 703 L1090 703 L744 0 L506 0 L472 0 L472 0 Z " />
<glyph glyph-name="&amp;#xb8;" unicode="&#xb8;" horiz-adv-x="1335" d="M320 0 L0 0 L116 411 L510 411 L476 287 L900 287 L172 606 L281 978 L1466 978 L1384 689 L639 689 L1296 383 L1186 0 L394 0 L320 0 L320 0 Z " />
<glyph glyph-name="&amp;#xe18;" unicode="&#xe18;" horiz-adv-x="1335" d="M320 0 L0 0 L116 411 L510 411 L476 287 L900 287 L172 606 L281 978 L1466 978 L1384 689 L639 689 L1296 383 L1186 0 L394 0 L320 0 L320 0 Z " />
<glyph glyph-name="&amp;#xb9;" unicode="&#xb9;" horiz-adv-x="1196" d="M1332 989 L1048 0 L655 0 L715 210 L486 0 L394 0 L179 0 L0 0 L283 989 L677 989 L470 265 L823 587 L938 989 L1332 989 L1332 989 Z " />
<glyph glyph-name="&amp;#xe19;" unicode="&#xe19;" horiz-adv-x="1196" d="M1332 989 L1048 0 L655 0 L715 210 L486 0 L394 0 L179 0 L0 0 L283 989 L677 989 L470 265 L823 587 L938 989 L1332 989 L1332 989 Z " />
<glyph glyph-name="&amp;#xba;" unicode="&#xba;" horiz-adv-x="1191" d="M477 290 L743 290 L907 989 L1301 989 L1054 0 L994 0 L660 0 L394 0 L0 0 L0 0 L284 989 L677 989 L477 290 L477 290 Z " />
<glyph glyph-name="&amp;#xe1a;" unicode="&#xe1a;" horiz-adv-x="1191" d="M477 290 L743 290 L907 989 L1301 989 L1054 0 L994 0 L660 0 L394 0 L0 0 L0 0 L284 989 L677 989 L477 290 L477 290 Z " />
<glyph glyph-name="&amp;#xbb;" unicode="&#xbb;" horiz-adv-x="1188" d="M477 290 L743 290 L934 1148 L1327 1148 L1054 0 L994 0 L660 0 L394 0 L0 0 L0 0 L284 989 L677 989 L477 290 L477 290 Z " />
<glyph glyph-name="&amp;#xe1b;" unicode="&#xe1b;" horiz-adv-x="1188" d="M477 290 L743 290 L934 1148 L1327 1148 L1054 0 L994 0 L660 0 L394 0 L0 0 L0 0 L284 989 L677 989 L477 290 L477 290 Z " />
<glyph glyph-name="&amp;#xbc;" unicode="&#xbc;" horiz-adv-x="1676" d="M478 294 L531 294 L877 989 L1207 989 L1170 294 L1218 294 L1418 989 L1812 989 L1528 0 L846 0 L844 257 L700 0 L0 0 L284 989 L551 989 L796 989 L664 704 L596 704 L478 294 L478 294 Z " />
<glyph glyph-name="&amp;#xe1c;" unicode="&#xe1c;" horiz-adv-x="1676" d="M478 294 L531 294 L877 989 L1207 989 L1170 294 L1218 294 L1418 989 L1812 989 L1528 0 L846 0 L844 257 L700 0 L0 0 L284 989 L551 989 L796 989 L664 704 L596 704 L478 294 L478 294 Z " />
<glyph glyph-name="&amp;#xbd;" unicode="&#xbd;" horiz-adv-x="1676" d="M478 294 L531 294 L877 989 L1207 989 L1170 294 L1218 294 L1464 1148 L1857 1148 L1528 0 L846 0 L844 257 L700 0 L0 0 L284 989 L551 989 L796 989 L664 704 L596 704 L478 294 L478 294 Z " />
<glyph glyph-name="&amp;#xe1d;" unicode="&#xe1d;" horiz-adv-x="1676" d="M478 294 L531 294 L877 989 L1207 989 L1170 294 L1218 294 L1464 1148 L1857 1148 L1528 0 L846 0 L844 257 L700 0 L0 0 L284 989 L551 989 L796 989 L664 704 L596 704 L478 294 L478 294 Z " />
<glyph glyph-name="&amp;#xbe;" unicode="&#xbe;" horiz-adv-x="1676" d="M478 294 L531 294 L877 989 L1207 989 L1170 294 L1218 294 L1418 989 L1812 989 L1528 0 L846 0 L844 257 L700 0 L0 0 L284 989 L677 989 L478 294 L478 294 Z " />
<glyph glyph-name="&amp;#xe1e;" unicode="&#xe1e;" horiz-adv-x="1676" d="M478 294 L531 294 L877 989 L1207 989 L1170 294 L1218 294 L1418 989 L1812 989 L1528 0 L846 0 L844 257 L700 0 L0 0 L284 989 L677 989 L478 294 L478 294 Z " />
<glyph glyph-name="&amp;#xbf;" unicode="&#xbf;" horiz-adv-x="1676" d="M478 294 L531 294 L877 989 L1207 989 L1170 294 L1218 294 L1463 1148 L1857 1148 L1528 0 L846 0 L844 257 L700 0 L0 0 L284 989 L677 989 L478 294 Z " />
<glyph glyph-name="&amp;#xe1f;" unicode="&#xe1f;" horiz-adv-x="1676" d="M478 294 L531 294 L877 989 L1207 989 L1170 294 L1218 294 L1463 1148 L1857 1148 L1528 0 L846 0 L844 257 L700 0 L0 0 L284 989 L677 989 L478 294 Z " />
<glyph glyph-name="&amp;#xc0;" unicode="&#xc0;" horiz-adv-x="1241" d="M700 0 L898 695 L666 695 L328 0 L-102 0 L-20 286 L71 286 L416 989 L1376 989 L1376 989 L1379 989 L1092 0 L700 0 Z " />
<glyph glyph-name="&amp;#xe20;" unicode="&#xe20;" horiz-adv-x="1241" d="M700 0 L898 695 L666 695 L328 0 L-102 0 L-20 286 L71 286 L416 989 L1376 989 L1376 989 L1379 989 L1092 0 L700 0 Z " />
<glyph glyph-name="&amp;#xc1;" unicode="&#xc1;" horiz-adv-x="1196" d="M284 989 L678 989 L562 587 L731 265 L939 989 L1332 989 L1048 0 L562 0 L454 210 L394 0 L0 0 L284 989 L284 989 Z " />
<glyph glyph-name="&amp;#xe21;" unicode="&#xe21;" horiz-adv-x="1196" d="M284 989 L678 989 L562 587 L731 265 L939 989 L1332 989 L1048 0 L562 0 L454 210 L394 0 L0 0 L284 989 L284 989 Z " />
<glyph glyph-name="&amp;#xc2;" unicode="&#xc2;" horiz-adv-x="1172" d="M0 0 L81 282 L245 495 L203 705 L284 989 L789 989 L707 698 L597 698 L632 495 L474 282 L716 282 L919 989 L1308 989 L1024 0 L0 0 Z " />
<glyph glyph-name="&amp;#xe22;" unicode="&#xe22;" horiz-adv-x="1172" d="M0 0 L81 282 L245 495 L203 705 L284 989 L789 989 L707 698 L597 698 L632 495 L474 282 L716 282 L919 989 L1308 989 L1024 0 L0 0 Z " />
<glyph glyph-name="&amp;#xc3;" unicode="&#xc3;" horiz-adv-x="1126" d="M55 287 L535 287 L259 702 L507 989 L1282 989 L1199 700 L730 700 L1008 287 L760 0 L-28 0 L55 287 L55 287 Z " />
<glyph glyph-name="&amp;#xe23;" unicode="&#xe23;" horiz-adv-x="1126" d="M55 287 L535 287 L259 702 L507 989 L1282 989 L1199 700 L730 700 L1008 287 L760 0 L-28 0 L55 287 L55 287 Z " />
<glyph glyph-name="&amp;#xc4;" unicode="&#xc4;" horiz-adv-x="1239" d="M1376 988 L1016 -259 L622 -259 L898 694 L703 694 L671 694 L666 694 L468 288 L613 288 L531 0 L328 0 L23 0 L-69 0 L416 988 L671 988 L703 988 L1376 988 Z " />
<glyph glyph-name="&amp;#xe24;" unicode="&#xe24;" horiz-adv-x="1239" d="M1376 988 L1016 -259 L622 -259 L898 694 L703 694 L671 694 L666 694 L468 288 L613 288 L531 0 L328 0 L23 0 L-69 0 L416 988 L671 988 L703 988 L1376 988 Z " />
<glyph glyph-name="&amp;#xc5;" unicode="&#xc5;" horiz-adv-x="1211" d="M760 315 L501 315 L345 0 L-56 0 L246 601 L843 601 L872 703 L179 703 L261 989 L1347 989 L1063 0 L670 0 L760 315 L760 315 Z " />
<glyph glyph-name="&amp;#xe25;" unicode="&#xe25;" horiz-adv-x="1211" d="M760 315 L501 315 L345 0 L-56 0 L246 601 L843 601 L872 703 L179 703 L261 989 L1347 989 L1063 0 L670 0 L760 315 L760 315 Z " />
<glyph glyph-name="&amp;#xc6;" unicode="&#xc6;" horiz-adv-x="1245" d="M627 -278 L902 694 L670 694 L333 0 L332 0 L-128 0 L-47 285 L75 285 L420 988 L1380 988 L1380 988 L1383 988 L1015 -278 L627 -278 Z " />
<glyph glyph-name="&amp;#xe26;" unicode="&#xe26;" horiz-adv-x="1245" d="M627 -278 L902 694 L670 694 L333 0 L332 0 L-128 0 L-47 285 L75 285 L420 988 L1380 988 L1380 988 L1383 988 L1015 -278 L627 -278 Z " />
<glyph glyph-name="&amp;#xc7;" unicode="&#xc7;" horiz-adv-x="1045" d="M104 361 L491 361 L471 292 L546 292 L746 703 L203 703 L284 989 L1291 989 L789 0 L0 0 L104 361 L104 361 Z " />
<glyph glyph-name="&amp;#xe27;" unicode="&#xe27;" horiz-adv-x="1045" d="M104 361 L491 361 L471 292 L546 292 L746 703 L203 703 L284 989 L1291 989 L789 0 L0 0 L104 361 L104 361 Z " />
<glyph glyph-name="&amp;#xc8;" unicode="&#xc8;" horiz-adv-x="1306" d="M0 0 L284 989 L786 989 L1013 989 L1058 1148 L1485 1148 L1156 0 L765 0 L968 703 L596 700 L572 615 L849 615 L775 359 L496 359 L394 0 L0 0 Z " />
<glyph glyph-name="&amp;#xe28;" unicode="&#xe28;" horiz-adv-x="1306" d="M0 0 L284 989 L786 989 L1013 989 L1058 1148 L1485 1148 L1156 0 L765 0 L968 703 L596 700 L572 615 L849 615 L775 359 L496 359 L394 0 L0 0 Z " />
<glyph glyph-name="&amp;#xc9;" unicode="&#xc9;" horiz-adv-x="1197" d="M477 290 L743 290 L769 401 L641 401 L716 663 L831 663 L907 989 L1301 989 L1219 663 L1282 663 L1215 401 L1154 401 L1054 0 L994 0 L660 0 L394 0 L0 0 L0 0 L284 989 L677 989 L477 290 L477 290 Z " />
<glyph glyph-name="&amp;#xe29;" unicode="&#xe29;" horiz-adv-x="1197" d="M477 290 L743 290 L769 401 L641 401 L716 663 L831 663 L907 989 L1301 989 L1219 663 L1282 663 L1215 401 L1154 401 L1054 0 L994 0 L660 0 L394 0 L0 0 L0 0 L284 989 L677 989 L477 290 L477 290 Z " />
<glyph glyph-name="&amp;#xca;" unicode="&#xca;" horiz-adv-x="1210" d="M759 315 L499 315 L343 0 L-58 0 L244 601 L841 601 L871 703 L178 703 L259 989 L918 989 L964 1148 L1392 1148 L1062 0 L668 0 L759 315 Z " />
<glyph glyph-name="&amp;#xe2a;" unicode="&#xe2a;" horiz-adv-x="1210" d="M759 315 L499 315 L343 0 L-58 0 L244 601 L841 601 L871 703 L178 703 L259 989 L918 989 L964 1148 L1392 1148 L1062 0 L668 0 L759 315 Z " />
<glyph glyph-name="&amp;#xcb;" unicode="&#xcb;" horiz-adv-x="1412" d="M284 989 L677 989 L475 284 L543 284 L716 654 L1453 656 L1263 0 L869 0 L985 399 L905 399 L709 0 L394 0 L299 0 L0 0 L284 989 Z M805 988 L1542 988 L1468 724 L731 724 L805 988 Z " />
<glyph glyph-name="&amp;#xe2b;" unicode="&#xe2b;" horiz-adv-x="1412" d="M284 989 L677 989 L475 284 L543 284 L716 654 L1453 656 L1263 0 L869 0 L985 399 L905 399 L709 0 L394 0 L299 0 L0 0 L284 989 Z M805 988 L1542 988 L1468 724 L731 724 L805 988 Z " />
<glyph glyph-name="&amp;#xcc;" unicode="&#xcc;" horiz-adv-x="1676" d="M478 294 L531 294 L877 989 L1207 989 L1170 294 L1218 294 L1377 844 L1240 844 L1322 1130 L1460 1130 L1749 1130 L1854 1130 L1770 840 L1528 0 L846 0 L844 257 L700 0 L0 0 L284 989 L677 989 L478 294 L478 294 Z " />
<glyph glyph-name="&amp;#xe2c;" unicode="&#xe2c;" horiz-adv-x="1676" d="M478 294 L531 294 L877 989 L1207 989 L1170 294 L1218 294 L1377 844 L1240 844 L1322 1130 L1460 1130 L1749 1130 L1854 1130 L1770 840 L1528 0 L846 0 L844 257 L700 0 L0 0 L284 989 L677 989 L478 294 L478 294 Z " />
<glyph glyph-name="&amp;#xcd;" unicode="&#xcd;" horiz-adv-x="1195" d="M1331 988 L1305 895 L1304 895 L1047 0 L822 0 L681 0 L0 0 L160 553 L551 553 L472 284 L737 284 L859 705 L186 705 L267 989 L1331 988 Z " />
<glyph glyph-name="&amp;#xe2d;" unicode="&#xe2d;" horiz-adv-x="1195" d="M1331 988 L1305 895 L1304 895 L1047 0 L822 0 L681 0 L0 0 L160 553 L551 553 L472 284 L737 284 L859 705 L186 705 L267 989 L1331 988 Z " />
<glyph glyph-name="&amp;#xce;" unicode="&#xce;" horiz-adv-x="1195" d="M984 1148 L1377 1148 L1047 0 L0 0 L160 553 L551 553 L472 284 L737 284 L859 705 L186 705 L267 989 L938 989 L984 1148 L984 1148 Z " />
<glyph glyph-name="&amp;#xe2e;" unicode="&#xe2e;" horiz-adv-x="1195" d="M984 1148 L1377 1148 L1047 0 L0 0 L160 553 L551 553 L472 284 L737 284 L859 705 L186 705 L267 989 L938 989 L984 1148 L984 1148 Z " />
<glyph glyph-name="&amp;#xcf;" unicode="&#xcf;" horiz-adv-x="1241" d="M834 989 L765 707 L648 707 L601 543 L798 543 L819 543 L861 543 L985 989 L1379 989 L1095 0 L705 0 L787 285 L756 285 L735 285 L135 285 L337 989 L834 989 L834 989 Z " />
<glyph glyph-name="&amp;#xe2f;" unicode="&#xe2f;" horiz-adv-x="1241" d="M834 989 L765 707 L648 707 L601 543 L798 543 L819 543 L861 543 L985 989 L1379 989 L1095 0 L705 0 L787 285 L756 285 L735 285 L135 285 L337 989 L834 989 L834 989 Z " />
<glyph glyph-name="&amp;#xd0;" unicode="&#xd0;" horiz-adv-x="488" d="M254 861 L254 861 L592 861 L511 576 L173 576 L254 861 Z M115 399 L453 399 L372 114 L34 114 L115 399 Z " />
<glyph glyph-name="&amp;#xe30;" unicode="&#xe30;" horiz-adv-x="488" d="M254 861 L254 861 L592 861 L511 576 L173 576 L254 861 Z M115 399 L453 399 L372 114 L34 114 L115 399 Z " />
<glyph glyph-name="&amp;#xd1;" unicode="&#xd1;" d="M-500 1162 L-424 1425 L-32 1425 L-69 1298 L300 1298 L263 1162 L-107 1162 L-206 1162 L-500 1162 L-500 1162 Z " />
<glyph glyph-name="&amp;#xe31;" unicode="&#xe31;" d="M-500 1162 L-424 1425 L-32 1425 L-69 1298 L300 1298 L263 1162 L-107 1162 L-206 1162 L-500 1162 L-500 1162 Z " />
<glyph glyph-name="&amp;#xd2;" unicode="&#xd2;" horiz-adv-x="824" d="M677 0 L284 0 L486 703 L165 703 L247 989 L961 989 L677 0 L677 0 Z " />
<glyph glyph-name="&amp;#xe32;" unicode="&#xe32;" horiz-adv-x="824" d="M677 0 L284 0 L486 703 L165 703 L247 989 L961 989 L677 0 L677 0 Z " />
<glyph glyph-name="&amp;#xd3;" unicode="&#xd3;" horiz-adv-x="823" d="M675 0 L959 989 L245 989 L163 703 L484 703 L282 0 L675 0 L675 0 L675 0 Z M-164 1447 L257 1447 L176 1163 L-245 1163 L-164 1447 L-164 1447 L-164 1447 Z M-46 1350 L-65 1282 L64 1282 L83 1350 L-46 1350 L-46 1350 Z " />
<glyph glyph-name="&amp;#xe33;" unicode="&#xe33;" horiz-adv-x="823" d="M675 0 L959 989 L245 989 L163 703 L484 703 L282 0 L675 0 L675 0 L675 0 Z M-164 1447 L257 1447 L176 1163 L-245 1163 L-164 1447 L-164 1447 L-164 1447 Z M-46 1350 L-65 1282 L64 1282 L83 1350 L-46 1350 L-46 1350 Z " />
<glyph glyph-name="&amp;#xd4;" unicode="&#xd4;" d="M-904 1164 L-846 1336 L211 1336 L154 1164 L-904 1164 L-904 1164 Z " />
<glyph glyph-name="&amp;#xe34;" unicode="&#xe34;" d="M-904 1164 L-846 1336 L211 1336 L154 1164 L-904 1164 L-904 1164 Z " />
<glyph glyph-name="&amp;#xd5;" unicode="&#xd5;" d="M-160 1421 L234 1421 L159 1163 L-904 1163 L-857 1326 L-187 1326 L-160 1421 L-160 1421 Z " />
<glyph glyph-name="&amp;#xe35;" unicode="&#xe35;" d="M-160 1421 L234 1421 L159 1163 L-904 1163 L-857 1326 L-187 1326 L-160 1421 L-160 1421 Z " />
<glyph glyph-name="&amp;#xd6;" unicode="&#xd6;" d="M-159 1445 L-159 1445 L234 1445 L154 1163 L-904 1163 L-858 1327 L-193 1327 L-159 1445 Z M-64 1331 L63 1331 L76 1379 L-52 1379 L-64 1331 Z " />
<glyph glyph-name="&amp;#xe36;" unicode="&#xe36;" d="M-159 1445 L-159 1445 L234 1445 L154 1163 L-904 1163 L-858 1327 L-193 1327 L-159 1445 Z M-64 1331 L63 1331 L76 1379 L-52 1379 L-64 1331 Z " />
<glyph glyph-name="&amp;#xd7;" unicode="&#xd7;" d="M-852 1349 L-406 1349 L-379 1439 L-177 1439 L-203 1349 L-133 1349 L-106 1439 L232 1439 L154 1164 L-904 1164 L-852 1349 L-852 1349 Z " />
<glyph glyph-name="&amp;#xe37;" unicode="&#xe37;" d="M-852 1349 L-406 1349 L-379 1439 L-177 1439 L-203 1349 L-133 1349 L-106 1439 L232 1439 L154 1164 L-904 1164 L-852 1349 L-852 1349 Z " />
<glyph glyph-name="&amp;#xd8;" unicode="&#xd8;" d="M-613 -62 L-530 -62 L-220 -62 L-136 -62 L-242 -428 L-636 -428 L-591 -274 L-674 -274 L-613 -62 L-613 -62 Z " />
<glyph glyph-name="&amp;#xe38;" unicode="&#xe38;" d="M-613 -62 L-530 -62 L-220 -62 L-136 -62 L-242 -428 L-636 -428 L-591 -274 L-674 -274 L-613 -62 L-613 -62 Z " />
<glyph glyph-name="&amp;#xd9;" unicode="&#xd9;" d="M-1107 -62 L-1024 -62 L-714 -62 L-630 -62 L-691 -276 L-591 -276 L-529 -62 L-136 -62 L-245 -427 L-329 -427 L-691 -427 L-736 -427 L-774 -427 L-1130 -427 L-1085 -274 L-1168 -274 L-1107 -62 L-1107 -62 Z " />
<glyph glyph-name="&amp;#xe39;" unicode="&#xe39;" d="M-1107 -62 L-1024 -62 L-714 -62 L-630 -62 L-691 -276 L-591 -276 L-529 -62 L-136 -62 L-245 -427 L-329 -427 L-691 -427 L-736 -427 L-774 -427 L-1130 -427 L-1085 -274 L-1168 -274 L-1107 -62 L-1107 -62 Z " />
<glyph glyph-name="&amp;#xda;" unicode="&#xda;" d="M-354 -71 Q-318 -71 -286 -84.5 Q-254 -98 -230.5 -122 Q-207 -146 -193 -177.5 Q-179 -209 -179 -245 Q-179 -281 -193 -313 Q-207 -345 -230.5 -369 Q-254 -393 -286 -406.5 Q-318 -420 -354 -420 Q-390 -420 -421.5 -406.5 Q-453 -393 -477 -369 Q-501 -345 -514.5 -313 Q-528 -281 -528 -245 Q-528 -209 -514.5 -177.5 Q-501 -146 -477 -122 Q-453 -98 -421.5 -84.5 Q-390 -71 -354 -71 Z M-354 -189 Q-377 -189 -393.5 -205.5 Q-410 -222 -410 -245 Q-410 -269 -393.5 -285.5 Q-377 -302 -354 -302 Q-331 -302 -314 -285.5 Q-297 -269 -297 -245 Q-297 -222 -314 -205.5 Q-331 -189 -354 -189 Z " />
<glyph glyph-name="&amp;#xe3a;" unicode="&#xe3a;" d="M-354 -71 Q-318 -71 -286 -84.5 Q-254 -98 -230.5 -122 Q-207 -146 -193 -177.5 Q-179 -209 -179 -245 Q-179 -281 -193 -313 Q-207 -345 -230.5 -369 Q-254 -393 -286 -406.5 Q-318 -420 -354 -420 Q-390 -420 -421.5 -406.5 Q-453 -393 -477 -369 Q-501 -345 -514.5 -313 Q-528 -281 -528 -245 Q-528 -209 -514.5 -177.5 Q-501 -146 -477 -122 Q-453 -98 -421.5 -84.5 Q-390 -71 -354 -71 Z M-354 -189 Q-377 -189 -393.5 -205.5 Q-410 -222 -410 -245 Q-410 -269 -393.5 -285.5 Q-377 -302 -354 -302 Q-331 -302 -314 -285.5 Q-297 -269 -297 -245 Q-297 -222 -314 -205.5 Q-331 -189 -354 -189 Z " />
<glyph glyph-name="&amp;#xdb;" unicode="&#xdb;" d="" />
<glyph glyph-name="&amp;#xe3b;" unicode="&#xe3b;" d="" />
<glyph glyph-name="&amp;#xdc;" unicode="&#xdc;" d="" />
<glyph glyph-name="&amp;#xe3c;" unicode="&#xe3c;" d="" />
<glyph glyph-name="&amp;#xdd;" unicode="&#xdd;" d="" />
<glyph glyph-name="&amp;#xe3d;" unicode="&#xe3d;" d="" />
<glyph glyph-name="nptp3.001march2007r" unicode="&#xe3e;" d="" />
<glyph glyph-name="&amp;#xdf;" unicode="&#xdf;" horiz-adv-x="1251" d="" />
<glyph glyph-name="&amp;#xe3f;" unicode="&#xe3f;" horiz-adv-x="1251" d="" />
<glyph glyph-name="&amp;#xe0;" unicode="&#xe0;" horiz-adv-x="541" d="M284 990 L678 990 L394 0 L0 0 L284 990 L284 990 Z " />
<glyph glyph-name="&amp;#xe40;" unicode="&#xe40;" horiz-adv-x="541" d="M284 990 L678 990 L394 0 L0 0 L284 990 L284 990 Z " />
<glyph glyph-name="&amp;#xe1;" unicode="&#xe1;" horiz-adv-x="1030" d="M773 988 L773 988 L1166 988 L883 0 L489 0 L773 988 Z M284 988 L284 988 L677 988 L394 0 L0 0 L284 988 Z " />
<glyph glyph-name="&amp;#xe41;" unicode="&#xe41;" horiz-adv-x="1030" d="M773 988 L773 988 L1166 988 L883 0 L489 0 L773 988 Z M284 988 L284 988 L677 988 L394 0 L0 0 L284 988 Z " />
<glyph glyph-name="&amp;#xe2;" unicode="&#xe2;" horiz-adv-x="543" d="M1479 1696 L1431 1525 L842 1525 L394 0 L0 0 L495 1696 L1479 1696 Z " />
<glyph glyph-name="&amp;#xe42;" unicode="&#xe42;" horiz-adv-x="543" d="M1479 1696 L1431 1525 L842 1525 L394 0 L0 0 L495 1696 L1479 1696 Z " />
<glyph glyph-name="&amp;#xe3;" unicode="&#xe3;" horiz-adv-x="643" d="M905 1420 L493 0 L99 0 L522 1466 L596 1525 L319 1525 L401 1343 L60 1343 L-23 1523 L27 1696 L113 1696 L422 1696 L1003 1696 L1053 1526 L905 1420 Z " />
<glyph glyph-name="&amp;#xe43;" unicode="&#xe43;" horiz-adv-x="643" d="M905 1420 L493 0 L99 0 L522 1466 L596 1525 L319 1525 L401 1343 L60 1343 L-23 1523 L27 1696 L113 1696 L422 1696 L1003 1696 L1053 1526 L905 1420 Z " />
<glyph glyph-name="&amp;#xe4;" unicode="&#xe4;" horiz-adv-x="640" d="M901 1420 L492 0 L98 0 L516 1461 L517 1461 L518 1466 L592 1525 L88 1525 L137 1696 L998 1696 L1048 1526 L901 1420 Z " />
<glyph glyph-name="&amp;#xe44;" unicode="&#xe44;" horiz-adv-x="640" d="M901 1420 L492 0 L98 0 L516 1461 L517 1461 L518 1466 L592 1525 L88 1525 L137 1696 L998 1696 L1048 1526 L901 1420 Z " />
<glyph glyph-name="&amp;#xe5;" unicode="&#xe5;" horiz-adv-x="828" d="M608 -259 L214 -259 L486 705 L165 705 L246 990 L961 990 L608 -259 L608 -259 Z " />
<glyph glyph-name="&amp;#xe45;" unicode="&#xe45;" horiz-adv-x="828" d="M608 -259 L214 -259 L486 705 L165 705 L246 990 L961 990 L608 -259 L608 -259 Z " />
<glyph glyph-name="&amp;#xe6;" unicode="&#xe6;" horiz-adv-x="1211" d="M570 -340 L869 710 L710 710 L589 799 L556 661 L669 661 L622 506 L178 506 L313 994 L633 994 L746 906 L1318 906 L964 -340 L570 -340 L570 -340 Z " />
<glyph glyph-name="&amp;#xe46;" unicode="&#xe46;" horiz-adv-x="1211" d="M570 -340 L869 710 L710 710 L589 799 L556 661 L669 661 L622 506 L178 506 L313 994 L633 994 L746 906 L1318 906 L964 -340 L570 -340 L570 -340 Z " />
<glyph glyph-name="&amp;#xe7;" unicode="&#xe7;" d="M408 1695 L341 1477 L-235 1479 L-263 1383 L-74 1437 L81 1383 L314 1382 L248 1162 L15 1163 L-138 1220 L-329 1164 L-560 1164 L-400 1698 L408 1695 L408 1695 Z " />
<glyph glyph-name="&amp;#xe47;" unicode="&#xe47;" d="M408 1695 L341 1477 L-235 1479 L-263 1383 L-74 1437 L81 1383 L314 1382 L248 1162 L15 1163 L-138 1220 L-329 1164 L-560 1164 L-400 1698 L408 1695 L408 1695 Z " />
<glyph glyph-name="&amp;#xe8;" unicode="&#xe8;" d="M-157 1462 L-82 1725 L310 1725 L235 1462 L-157 1462 L-157 1462 Z " />
<glyph glyph-name="&amp;#xe48;" unicode="&#xe48;" d="M-157 1462 L-82 1725 L310 1725 L235 1462 L-157 1462 L-157 1462 Z " />
<glyph glyph-name="&amp;#xe9;" unicode="&#xe9;" d="M-159 1612 L-227 1612 L-191 1737 L-123 1737 L97 1737 L270 1737 L235 1612 L616 1612 L573 1462 L-202 1462 L-160 1612 L-160 1612 L-159 1612 L-159 1612 Z " />
<glyph glyph-name="&amp;#xe49;" unicode="&#xe49;" d="M-159 1612 L-227 1612 L-191 1737 L-123 1737 L97 1737 L270 1737 L235 1612 L616 1612 L573 1462 L-202 1462 L-160 1612 L-160 1612 L-159 1612 L-159 1612 Z " />
<glyph glyph-name="&amp;#xea;" unicode="&#xea;" d="M-60 1676 L-176 1676 L-265 1741 L-289 1640 L-207 1640 L-241 1527 L-566 1527 L-467 1884 L-233 1884 L-150 1819 L-20 1819 L11 1819 L268 1819 L200 1575 L488 1575 L459 1462 L169 1462 L-8 1462 L-120 1462 L-60 1676 L-60 1676 Z " />
<glyph glyph-name="&amp;#xe4a;" unicode="&#xe4a;" d="M-60 1676 L-176 1676 L-265 1741 L-289 1640 L-207 1640 L-241 1527 L-566 1527 L-467 1884 L-233 1884 L-150 1819 L-20 1819 L11 1819 L268 1819 L200 1575 L488 1575 L459 1462 L169 1462 L-8 1462 L-120 1462 L-60 1676 L-60 1676 Z " />
<glyph glyph-name="&amp;#xeb;" unicode="&#xeb;" d="M-157 1462 L-139 1526 L-207 1526 L-165 1675 L-97 1675 L-82 1725 L310 1725 L296 1675 L365 1675 L322 1526 L253 1526 L235 1462 L-157 1462 L-157 1462 Z " />
<glyph glyph-name="&amp;#xe4b;" unicode="&#xe4b;" d="M-157 1462 L-139 1526 L-207 1526 L-165 1675 L-97 1675 L-82 1725 L310 1725 L296 1675 L365 1675 L322 1526 L253 1526 L235 1462 L-157 1462 L-157 1462 Z " />
<glyph glyph-name="&amp;#xec;" unicode="&#xec;" d="M-192 1382 L-110 1668 L217 1668 L317 1668 L666 1668 L620 1508 L271 1508 L235 1382 L-192 1382 L-192 1382 Z " />
<glyph glyph-name="&amp;#xe4c;" unicode="&#xe4c;" d="M-192 1382 L-110 1668 L217 1668 L317 1668 L666 1668 L620 1508 L271 1508 L235 1382 L-192 1382 L-192 1382 Z " />
<glyph glyph-name="&amp;#xed;" unicode="&#xed;" d="M0 1484 Q36 1484 68 1470.5 Q100 1457 123.5 1433 Q147 1409 161 1377.5 Q175 1346 175 1310 Q175 1274 161 1242 Q147 1210 123.5 1186 Q100 1162 68 1148.5 Q36 1135 0 1135 Q-36 1135 -67.5 1148.5 Q-99 1162 -123 1186 Q-147 1210 -160.5 1242 Q-174 1274 -174 1310 Q-174 1346 -160.5 1377.5 Q-147 1409 -123 1433 Q-99 1457 -67.5 1470.5 Q-36 1484 0 1484 Z M0 1366 Q-23 1366 -39.5 1349.5 Q-56 1333 -56 1310 Q-56 1286 -39.5 1269.5 Q-23 1253 0 1253 Q23 1253 40 1269.5 Q57 1286 57 1310 Q57 1333 40 1349.5 Q23 1366 0 1366 Z " />
<glyph glyph-name="&amp;#xe4d;" unicode="&#xe4d;" d="M0 1484 Q36 1484 68 1470.5 Q100 1457 123.5 1433 Q147 1409 161 1377.5 Q175 1346 175 1310 Q175 1274 161 1242 Q147 1210 123.5 1186 Q100 1162 68 1148.5 Q36 1135 0 1135 Q-36 1135 -67.5 1148.5 Q-99 1162 -123 1186 Q-147 1210 -160.5 1242 Q-174 1274 -174 1310 Q-174 1346 -160.5 1377.5 Q-147 1409 -123 1433 Q-99 1457 -67.5 1470.5 Q-36 1484 0 1484 Z M0 1366 Q-23 1366 -39.5 1349.5 Q-56 1333 -56 1310 Q-56 1286 -39.5 1269.5 Q-23 1253 0 1253 Q23 1253 40 1269.5 Q57 1286 57 1310 Q57 1333 40 1349.5 Q23 1366 0 1366 Z " />
<glyph glyph-name="&amp;#xee;" unicode="&#xee;" d="" />
<glyph glyph-name="&amp;#xe4e;" unicode="&#xe4e;" d="" />
<glyph glyph-name="&amp;#xef;" unicode="&#xef;" horiz-adv-x="862" d="" />
<glyph glyph-name="&amp;#xe4f;" unicode="&#xe4f;" horiz-adv-x="862" d="" />
<glyph glyph-name="&amp;#xf0;" unicode="&#xf0;" horiz-adv-x="1430" d="" />
<glyph glyph-name="&amp;#xe50;" unicode="&#xe50;" horiz-adv-x="1430" d="" />
<glyph glyph-name="&amp;#xf1;" unicode="&#xf1;" horiz-adv-x="1406" d="" />
<glyph glyph-name="&amp;#xe51;" unicode="&#xe51;" horiz-adv-x="1406" d="" />
<glyph glyph-name="&amp;#xf2;" unicode="&#xf2;" horiz-adv-x="1908" d="" />
<glyph glyph-name="&amp;#xe52;" unicode="&#xe52;" horiz-adv-x="1908" d="" />
<glyph glyph-name="&amp;#xf3;" unicode="&#xf3;" horiz-adv-x="1950" d="" />
<glyph glyph-name="&amp;#xe53;" unicode="&#xe53;" horiz-adv-x="1950" d="" />
<glyph glyph-name="&amp;#xf4;" unicode="&#xf4;" horiz-adv-x="1564" d="" />
<glyph glyph-name="&amp;#xe54;" unicode="&#xe54;" horiz-adv-x="1564" d="" />
<glyph glyph-name="&amp;#xf5;" unicode="&#xf5;" horiz-adv-x="1566" d="" />
<glyph glyph-name="&amp;#xe55;" unicode="&#xe55;" horiz-adv-x="1566" d="" />
<glyph glyph-name="&amp;#xf6;" unicode="&#xf6;" horiz-adv-x="1474" d="" />
<glyph glyph-name="&amp;#xe56;" unicode="&#xe56;" horiz-adv-x="1474" d="" />
<glyph glyph-name="&amp;#xf7;" unicode="&#xf7;" horiz-adv-x="2544" d="" />
<glyph glyph-name="&amp;#xe57;" unicode="&#xe57;" horiz-adv-x="2544" d="" />
<glyph glyph-name="&amp;#xf8;" unicode="&#xf8;" horiz-adv-x="1599" d="" />
<glyph glyph-name="&amp;#xe58;" unicode="&#xe58;" horiz-adv-x="1599" d="" />
<glyph glyph-name="&amp;#xf9;" unicode="&#xf9;" horiz-adv-x="1801" d="" />
<glyph glyph-name="&amp;#xe59;" unicode="&#xe59;" horiz-adv-x="1801" d="" />
<glyph glyph-name="&amp;#xfa;" unicode="&#xfa;" horiz-adv-x="1695" d="M756 707 L639 707 L592 543 L789 543 L810 543 L852 543 L976 989 L1370 989 L1086 0 L696 0 L778 285 L747 285 L726 285 L126 285 L328 989 L825 989 L756 707 Z M1827 990 L1543 0 L1149 0 L1433 990 L1827 990 Z " />
<glyph glyph-name="&amp;#xe5a;" unicode="&#xe5a;" horiz-adv-x="1695" d="M756 707 L639 707 L592 543 L789 543 L810 543 L852 543 L976 989 L1370 989 L1086 0 L696 0 L778 285 L747 285 L726 285 L126 285 L328 989 L825 989 L756 707 Z M1827 990 L1543 0 L1149 0 L1433 990 L1827 990 Z " />
<glyph glyph-name="&amp;#xfb;" unicode="&#xfb;" horiz-adv-x="1352" d="" />
<glyph glyph-name="&amp;#xe5b;" unicode="&#xe5b;" horiz-adv-x="1352" d="" />
<glyph glyph-name="&amp;#xfc;" unicode="&#xfc;" d="M-530 -62 L-220 -62 L-136 -62 L-242 -428 L-636 -428 L-591 -274 L-674 -274 L-613 -62 L-530 -62 Z " />
<glyph glyph-name="&amp;#xf718;" unicode="&#xf718;" d="M-530 -62 L-220 -62 L-136 -62 L-242 -428 L-636 -428 L-591 -274 L-674 -274 L-613 -62 L-530 -62 Z " />
<glyph glyph-name="&amp;#xfd;" unicode="&#xfd;" d="M-1024 -62 L-714 -62 L-630 -62 L-691 -276 L-591 -276 L-529 -62 L-136 -62 L-245 -427 L-329 -427 L-691 -427 L-736 -427 L-774 -427 L-1130 -427 L-1085 -274 L-1168 -274 L-1107 -62 L-1024 -62 Z " />
<glyph glyph-name="&amp;#xf719;" unicode="&#xf719;" d="M-1024 -62 L-714 -62 L-630 -62 L-691 -276 L-591 -276 L-529 -62 L-136 -62 L-245 -427 L-329 -427 L-691 -427 L-736 -427 L-774 -427 L-1130 -427 L-1085 -274 L-1168 -274 L-1107 -62 L-1024 -62 Z " />
<glyph glyph-name="&amp;#xfe;" unicode="&#xfe;" d="M-317 -411 Q-281 -411 -249 -424.5 Q-217 -438 -193.5 -462 Q-170 -486 -156 -517.5 Q-142 -549 -142 -585 Q-142 -621 -156 -653 Q-170 -685 -193.5 -709 Q-217 -733 -249 -746.5 Q-281 -760 -317 -760 Q-353 -760 -384.5 -746.5 Q-416 -733 -440 -709 Q-464 -685 -477.5 -653 Q-491 -621 -491 -585 Q-491 -549 -477.5 -517.5 Q-464 -486 -440 -462 Q-416 -438 -384.5 -424.5 Q-353 -411 -317 -411 Z M-317 -529 Q-340 -529 -356.5 -545.5 Q-373 -562 -373 -585 Q-373 -609 -356.5 -625.5 Q-340 -642 -317 -642 Q-294 -642 -277 -625.5 Q-260 -609 -260 -585 Q-260 -562 -277 -545.5 Q-294 -529 -317 -529 Z " />
<glyph glyph-name="&amp;#xf71a;" unicode="&#xf71a;" d="M-317 -411 Q-281 -411 -249 -424.5 Q-217 -438 -193.5 -462 Q-170 -486 -156 -517.5 Q-142 -549 -142 -585 Q-142 -621 -156 -653 Q-170 -685 -193.5 -709 Q-217 -733 -249 -746.5 Q-281 -760 -317 -760 Q-353 -760 -384.5 -746.5 Q-416 -733 -440 -709 Q-464 -685 -477.5 -653 Q-491 -621 -491 -585 Q-491 -549 -477.5 -517.5 Q-464 -486 -440 -462 Q-416 -438 -384.5 -424.5 Q-353 -411 -317 -411 Z M-317 -529 Q-340 -529 -356.5 -545.5 Q-373 -562 -373 -585 Q-373 -609 -356.5 -625.5 Q-340 -642 -317 -642 Q-294 -642 -277 -625.5 Q-260 -609 -260 -585 Q-260 -562 -277 -545.5 Q-294 -529 -317 -529 Z " />
<glyph glyph-name="Naipol" unicode="&#xff;" horiz-adv-x="2072" d="M1758 331 Q1744 323 1728 314.5 Q1712 306 1696 298 Q1679 288 1661 279.5 Q1643 271 1625 265 L1625 924 L1625 926 Q1638 921 1650.5 915 Q1663 909 1676 904 Q1697 893 1717.5 881.5 Q1738 870 1758 859 L1758 776 L1739 788 L1713 803 L1693 814 L1693 624 L1756 624 L1756 538 L1693 538 L1693 376 L1713 385 L1739 400 L1758 414 L1758 331 Z M1263 1015 L1263 1018 Q1285 1014 1305 1010.5 Q1325 1007 1345 1003 Q1365 1001 1383.5 997.5 Q1402 994 1421 990 L1419 912 L1377 919 L1329 928 L1331 263 L1419 278 L1419 200 Q1382 192 1343.5 185.5 Q1305 179 1263 174 L1263 1015 Z M1181 1026 Q1186 1026 1193 1024.5 Q1200 1023 1207 1023 Q1217 1021 1227.5 1020.5 Q1238 1020 1248 1018 L1248 172 Q1241 172 1233.5 170.5 Q1226 169 1218 169 Q1210 167 1200.5 166.5 Q1191 166 1181 164 L1181 1026 Z M448 919 L516 945 L600 531 L600 973 L668 990 L668 205 L668 200 L596 218 L516 612 L516 245 L447 271 L448 919 Z M363 879 L432 912 L433 278 L363 311 L363 879 Z M157 536 Q151 560 148.5 582 Q146 604 151 627 Q156 659 169 687 Q182 715 199 738 Q210 755 223 769 Q236 783 250 796 Q274 819 298.5 836 Q323 853 346 868 L346 788 L346 705 L278 705 L280 732 L265 715 L252 699 L240 683 Q236 675 233 667 Q230 659 227 652 Q225 646 223 639 Q221 632 218 624 L218 621 L346 621 L346 538 L346 323 Q314 343 288 362.5 Q262 382 240 402 Q187 456 164 513 L237 513 L240 508 L252 492 L265 474 L280 458 L280 538 Q249 536 219 536 Q189 536 157 536 Z M906 932 L838 926 L838 939 Q828 939 818.5 938 Q809 937 799 935 Q787 933 775.5 931.5 Q764 930 752 928 L752 624 L904 624 L906 624 L906 233 L906 164 Q879 166 853 169.5 Q827 173 800 175 Q771 180 742 185 Q713 190 685 195 L685 235 L685 293 L752 280 L752 263 L759 260 L800 253 L840 251 L840 541 L685 541 L685 621 L685 993 Q711 998 737 1003 Q763 1008 789 1013 Q818 1017 846 1019 Q874 1021 906 1023 L906 1008 L906 932 Z M1076 160 L1039 160 L1010 160 L1008 160 L1008 240 L1008 950 L988 950 L942 948 L926 948 L925 1026 Q954 1028 977.5 1028 Q1001 1028 1033 1028 Q1064 1028 1095.5 1029 Q1127 1030 1160 1026 L1160 948 L1156 948 L1121 948 L1078 950 L1076 950 L1076 240 L1076 160 Z M1436 986 L1503 968 L1503 783 L1550 955 Q1557 951 1564.5 949 Q1572 947 1580 944 Q1588 940 1596.5 937 Q1605 934 1615 930 L1528 616 L1615 260 Q1607 257 1597.5 253.5 Q1588 250 1578 247 Q1570 244 1563.5 241.5 Q1557 239 1550 235 L1503 452 L1503 222 Q1468 211 1436 205 L1436 986 Z M1870 621 Q1869 626 1866.5 635 Q1864 644 1861 652 Q1855 666 1849 677 Q1843 688 1840 692 L1840 621 L1870 621 Z M1773 848 Q1794 833 1813 818 Q1832 803 1848 786 Q1869 764 1885.5 742.5 Q1902 721 1912 700 Q1923 683 1929 663.5 Q1935 644 1937 627 Q1940 604 1939 582.5 Q1938 561 1934 541 L1889 541 L1919 508 Q1917 498 1913 490.5 Q1909 483 1904 476 Q1899 466 1892.5 457.5 Q1886 449 1878 438 L1840 498 Q1842 475 1841 447.5 Q1840 420 1840 399 Q1832 390 1824.5 383.5 Q1817 377 1808 369 Q1798 361 1789.5 354 Q1781 347 1773 341 L1773 427 L1773 766 L1773 848 Z M1044 1122 Q1178 1122 1302.5 1103 Q1427 1084 1535 1050 Q1643 1016 1731.5 968 Q1820 920 1883.5 861.5 Q1947 803 1981.5 735.5 Q2016 668 2016 596 Q2016 523 1981.5 456 Q1947 389 1883.5 330.5 Q1820 272 1731.5 224.5 Q1643 177 1535 142.5 Q1427 108 1302.5 89.5 Q1178 71 1044 71 Q910 71 785.5 89.5 Q661 108 553 142.5 Q445 177 356.5 224.5 Q268 272 204.5 330.5 Q141 389 106.5 456 Q72 523 72 596 Q72 668 106.5 735.5 Q141 803 204.5 861.5 Q268 920 356.5 968 Q445 1016 553 1050 Q661 1084 785.5 1103 Q910 1122 1044 1122 Z M1044 1064 Q916 1064 798 1047.5 Q680 1031 577 1000 Q474 969 389.5 926.5 Q305 884 245 832 Q185 780 152 720.5 Q119 661 119 596 Q119 531 152 471 Q185 411 245 359 Q305 307 389.5 264 Q474 221 577 190.5 Q680 160 798 143.5 Q916 127 1044 127 Q1235 127 1403 163.5 Q1571 200 1696.5 264 Q1822 328 1894.5 413 Q1967 498 1967 596 Q1967 660 1934 720 Q1901 780 1841 832 Q1781 884 1696.5 927 Q1612 970 1509.5 1000 Q1407 1030 1289 1047 Q1171 1064 1044 1064 Z " />
<glyph glyph-name="uni25CC" unicode="&#x25cc;" horiz-adv-x="1049" d="" />
<glyph glyph-name="copyright2" unicode="&#x12a;" horiz-adv-x="1296" d="" />
<glyph glyph-name="registered2" unicode="&#x12b;" horiz-adv-x="1296" d="" />
<glyph glyph-name="trademark2" unicode="&#x12c;" horiz-adv-x="1938" d="" />
<glyph glyph-name="multiply2" unicode="&#x12d;" horiz-adv-x="1069" d="" />
<glyph glyph-name="divide2" unicode="&#x12e;" horiz-adv-x="1292" d="" />
<glyph glyph-name="ZWSP" unicode="&#x200b;" d="" />
</font>
</svg>
